<svg xmlns="http://www.w3.org/2000/svg" fill="none" viewBox="0 0 144 114"><g clip-path="url(#a)"><path stroke="#122744" stroke-miterlimit="10" stroke-width="4.84" d="M27.86 14.3a5.93 5.93 0 1 0 0-11.88 5.93 5.93 0 0 0 0 11.87Zm37.72 2.23a5.93 5.93 0 1 0 0-11.87 5.93 5.93 0 0 0 0 11.87Z"/><path fill="#C0BEBC" d="M10.66 6 9.63 96.28l79.45 3.27V24.71L10.66 6Z"/><path fill="#DCD9D7" d="M9.57 19.32 4.54 89.44l78.48 8.6 4-80.9-77.45 2.18Z"/><path fill="#fff" d="M9.02 19.86S5.57 78.06.24 79.93c-5.27 1.88 73.94 16.05 73.94 16.05s10-51.35 8.48-71.03L9.02 19.86Z"/><path fill="#7F95B9" d="M83.02 25.43 9.14 20.35 10.17 5.8l72.85 3.7v15.92Z"/><path fill="#26518D" d="m89.08 26.95-6.36-1.46.3-15.98 6.06 1.51v15.93Zm-43.3 43.54-8.42-1.1c-2.66-.36-3.87-1.33-3.7-3.02.25-1.88 1.89-2.67 4.85-2.24.3.06.6.06.91.12l2.42-18.77c-1.33.66-2.18 1.03-2.54.97a3 3 0 0 1-1.94-1.1 2.61 2.61 0 0 1-.6-2.05c.12-.79.66-1.52 1.7-2.18l2.6-1.46 2.84-1.75a5.5 5.5 0 0 1 3.21-.73c1.27.18 1.82 1.03 1.64 2.54a197.14 197.14 0 0 1-1.15 7.09c-.55 3.03-1.15 7.39-1.88 13.02l-.67 5.09 1.4.18a3.2 3.2 0 0 1 1.93 1.03c.49.6.67 1.27.6 2.06A2.6 2.6 0 0 1 47.9 70a3.56 3.56 0 0 1-2.12.49Z"/><path fill="#DCE5F2" d="M144 84.41c-1.76.91-38.4 20.23-55.05 26.7l-7.02-4.47-5.15 5.2a20.19 20.19 0 0 1-10.35-10.05C60.3 89.08 41.54 65.7 41.96 50.7l61.9-24.04s16.89 51.16 26.1 55.7c8.59 4.3 13.43 2.37 14.04 2.06Z"/><path fill="#B3B4DF" d="M89.02 111.12c-3.4 1.33-5.94 2.12-7.21 2.12h-.36a3.03 3.03 0 0 0-.73-.12 16.95 16.95 0 0 1-3.88-1.21L82 106.7l7.03 4.42Z"/><path fill="#26518D" d="M83.02 72.24c2.97.24 5.09 1.76 6.42 4.67a8.5 8.5 0 0 1 .18 7.08 9.64 9.64 0 0 1-5.15 5.33 11.86 11.86 0 0 1-5.45 1.2 7.27 7.27 0 0 1-5.14-2.1 2.18 2.18 0 0 1-.49-.74c-.3-.6-.3-1.27.06-1.93.3-.6.73-1.03 1.4-1.34a2.4 2.4 0 0 1 2.12.06c1.15.67 1.87.97 2 1.03.96.25 2.11.06 3.5-.6a4.61 4.61 0 0 0 2.37-2.3c.48-1.03.54-2 .12-2.9-1.33-2.86-3.94-3.58-7.93-2.19-1.76.6-2.91.3-3.46-.9-.42-.98-.12-1.95.97-2.98l3.27-2.54a4.83 4.83 0 0 0 1.34-1.75c.18-.55.18-1.1-.07-1.64-.72-1.7-2.48-1.94-5.14-.73a5.93 5.93 0 0 0-2.42 2.37c-.73 1.15-1.34 1.81-1.7 2-.67.3-1.33.3-2 .05a2.24 2.24 0 0 1-1.4-1.27c-.42-.97.07-2.36 1.52-4.18 1.33-1.63 2.49-2.72 3.58-3.2 2.6-1.22 4.9-1.58 6.96-1.22 2.3.43 3.93 1.76 5.02 4.06.61 1.27.85 2.42.8 3.51a6.23 6.23 0 0 1-1.28 3.15Zm26.1 4.67-6.78 3.14c-2.12.97-3.51.85-4.18-.54-.73-1.52.12-2.85 2.54-3.94.25-.12.49-.24.79-.3l-7.02-15.14c-.67 1.15-1.15 1.76-1.46 1.94-.66.3-1.27.3-2 .06a2.52 2.52 0 0 1-1.45-1.27c-.3-.6-.18-1.45.24-2.48l1.28-2.3 1.33-2.61a4.5 4.5 0 0 1 2.06-2.06c1.03-.48 1.81-.12 2.36 1.15.6 1.33 1.45 3.27 2.48 5.82 1.03 2.48 2.6 6.05 4.72 10.6l1.94 4.11 1.15-.54c.67-.3 1.33-.37 1.94-.13.67.25 1.09.6 1.4 1.28a2.26 2.26 0 0 1 .05 1.87c-.24.6-.72 1.03-1.39 1.34Z"/><path fill="#7074B0" d="M28.16 17.56a2.79 2.79 0 1 0 0-5.57 2.79 2.79 0 0 0 0 5.57Zm37.66 2.3a2.79 2.79 0 1 0 0-5.57 2.79 2.79 0 0 0 0 5.57Z"/><path stroke="#122744" stroke-linecap="round" stroke-miterlimit="10" stroke-width="4.84" d="M27.86 14.23a5.94 5.94 0 0 1-5.94-5.93 5.9 5.9 0 0 1 5.93-5.88m37.73 14.05a5.94 5.94 0 0 1-5.93-5.93 5.94 5.94 0 0 1 5.93-5.94"/></g><defs><clipPath id="a"><path fill="#fff" d="M0 0h144v113.24H0z"/></clipPath></defs></svg>