<svg xmlns="http://www.w3.org/2000/svg" fill="none" viewBox="0 0 101 83"><g clip-path="url(#a)"><path fill="#fff" d="M73.93 68.33a4.94 4.94 0 0 0 4.78-.84c1.67-1.4 2.2-3.73 2.62-5.87l1.26-6.35-2.64 1.82c-1.9 1.32-3.85 2.67-5.16 4.57-1.32 1.9-1.9 4.49-.84 6.54"/><path fill="#F2F2F2" d="M74.15 76.01a25.38 25.38 0 0 1-.35-5.9c.16-1.75.7-3.46 1.78-4.86a8.09 8.09 0 0 1 2.08-1.89c.2-.13.4.2.2.33a7.7 7.7 0 0 0-3.05 3.68 12.35 12.35 0 0 0-.65 5.3c.07 1.1.21 2.17.36 3.24a.2.2 0 0 1-.13.24.2.2 0 0 1-.24-.14Z"/><path fill="#fff" d="M76.73 72.56a3.64 3.64 0 0 0 3.17 1.64c1.61-.08 2.95-1.2 4.16-2.27l3.56-3.15-2.36-.11c-1.7-.08-3.44-.16-5.05.37-1.62.52-3.11 1.78-3.4 3.46"/><path fill="#F2F2F2" d="M73.4 77.14c1.28-2.29 2.78-4.82 5.45-5.63.74-.23 1.52-.3 2.3-.24.24.02.17.4-.07.38a5.64 5.64 0 0 0-3.66.96 9.52 9.52 0 0 0-2.51 2.72c-.42.64-.8 1.3-1.17 1.96-.12.21-.46.06-.34-.16Z"/><path fill="#fff" d="M41.64 61.1a9.75 9.75 0 0 1-9.42-1.66c-3.3-2.77-4.33-7.33-5.17-11.56l-2.49-12.51 5.21 3.6c3.75 2.58 7.58 5.24 10.18 8.98 2.6 3.75 3.73 8.85 1.64 12.9"/><path fill="#F2F2F2" d="M41.2 76.25c.53-3.85 1.07-7.74.7-11.63-.33-3.45-1.38-6.83-3.52-9.6a15.94 15.94 0 0 0-4.1-3.7c-.4-.26-.78.39-.37.65a15.16 15.16 0 0 1 6 7.23c1.3 3.33 1.5 6.95 1.28 10.48a88.2 88.2 0 0 1-.71 6.37.39.39 0 0 0 .26.46.38.38 0 0 0 .46-.26Z"/><path fill="#fff" d="M36.12 69.44a7.18 7.18 0 0 1-6.26 3.23c-3.17-.15-5.8-2.36-8.18-4.46L14.65 62l4.65-.23c3.35-.16 6.78-.3 9.96.73 3.2 1.03 6.13 3.52 6.71 6.82"/><path fill="#F2F2F2" d="M42.69 78.46c-2.54-4.5-5.48-9.5-10.75-11.1-1.46-.44-3-.6-4.52-.46-.48.04-.36.78.12.74 2.55-.21 5.1.46 7.22 1.9a18.76 18.76 0 0 1 4.95 5.36c.82 1.26 1.56 2.56 2.3 3.86.23.42.92.12.68-.3Z"/><path fill="#fff" d="M23.1 17.57 1.22 13l-.28-.06a.79.79 0 0 0-.87 1.12l8.78 17.57a.79.79 0 0 0 .96.4.78.78 0 0 0 .31-.21l5.98-6.4a.46.46 0 0 1 .34-.14.47.47 0 0 1 .42.24l1.25 2.28a.77.77 0 0 0 .86.39.77.77 0 0 0 .61-.74l.22-5.27c0-.07.02-.13.04-.2a.51.51 0 0 1 .13-.15l3.45-2.87a.79.79 0 0 0-.34-1.38Zm.13 1.14-3.45 2.87a.77.77 0 0 0-.13.13L1.2 13.46a.31.31 0 0 0-.3.54l15.19 11.04a.75.75 0 0 0-.2.16L9.9 31.6a.47.47 0 0 1-.76-.12L.36 13.91a.47.47 0 0 1 .52-.67l.3.06 21.85 4.58a.47.47 0 0 1 .2.83Z"/><path fill="#fff" d="M23.1 17.57 1.22 13l-.28-.06a.79.79 0 0 0-.87 1.12l8.78 17.57a.79.79 0 0 0 .96.4.78.78 0 0 0 .31-.21l5.98-6.4a.46.46 0 0 1 .34-.14.47.47 0 0 1 .42.24l1.25 2.28a.77.77 0 0 0 .86.39.77.77 0 0 0 .61-.74l.22-5.27c0-.07.02-.13.04-.2a.51.51 0 0 1 .13-.15l3.45-2.87a.79.79 0 0 0-.34-1.38Zm.13 1.14-3.45 2.87a.77.77 0 0 0-.26.4V22a.75.75 0 0 0-.03.16l-.21 5.28a.46.46 0 0 1-.37.44.46.46 0 0 1-.52-.23l-1.24-2.28a.78.78 0 0 0-.65-.4h-.05a.76.76 0 0 0-.56.24L9.9 31.6a.47.47 0 0 1-.76-.12L.36 13.91a.47.47 0 0 1 .52-.67l.3.06 21.85 4.58a.47.47 0 0 1 .2.83Z"/><path fill="#fff" d="m19.73 21.74-.13.28-.08-.03-18.45-8.24 15.43 11.2.04.03-.18.26-.27-.2L.89 14a.31.31 0 0 1 .3-.54l18.47 8.25.07.03Z"/><path fill="#FFB8B8" d="m67.19 43.7.8 7.81.01.16.24 2.32 1.94 19.06.38 3.7a4.42 4.42 0 0 0-.88 2.83c.03.75.24 1.5.62 2.15a42.32 42.32 0 0 0 8.39-3.1 4.55 4.55 0 0 0-1.52-2.65L75.2 52.46l-.17-2.06-.56-6.7h-7.3Zm5.59-21.26a10.34 10.34 0 0 0 0-14.62 10.32 10.32 0 0 0-14.6 0 10.34 10.34 0 0 0 0 14.62 10.32 10.32 0 0 0 14.6 0Z"/><path fill="#2EB9F2" d="M46.23 57.79v.06a1.9 1.9 0 0 0 1.49 1.69l15.4 3.37a1.9 1.9 0 0 0 1.56-.35c.33-.25.56-.6.67-1l.11-.38a64.55 64.55 0 0 1 2.78-7.2l.96-2.14.19-.42c.7-1.53 1.5-3.2 2.36-4.98a12.54 12.54 0 0 0-20-14.47 12.35 12.35 0 0 0-3.06 4.81l-.11.35a46.82 46.82 0 0 0-1.4 5.61 68.59 68.59 0 0 0-.95 15.04Z"/><path fill="#1C3760" d="M39.45 77.54A41.74 41.74 0 0 0 73.1 80.9c-.81-2.67-1.8-5.3-2.93-7.85a43.22 43.22 0 0 0-4.46-7.98 1.47 1.47 0 0 1-.21-1.34l.26-.78a1.9 1.9 0 0 0-.3-1.78l-.06-.06c-6.87-7.83-18.83-3.56-18.95-3.52l-.06.03-.04.05-.12.17c-3.25 4.55-5.4 11.54-6.8 19.69Z"/><path fill="#FFB8B8" d="M25.34 27.14c.05.22.08.45.1.69L43.5 38.25l4.39-2.53 4.68 6.14-7.34 5.23a3.36 3.36 0 0 1-4.04-.1L22.57 32.3a4.4 4.4 0 1 1 2.77-5.15Z"/><path fill="#52C5F3" d="M43.77 38.1c.07.23.18.45.33.65l3.08 4 1.47 1.9 1.29 1.67a1.89 1.89 0 0 0 2.86.16l4.67-4.86 1.93-2.01a5.26 5.26 0 0 0-6.44-8.31l-1.2.67-7.08 3.97a1.9 1.9 0 0 0-.9 2.15Z"/><path fill="#007ABA" d="m64.2 40.6.3 9.44v.06a1.9 1.9 0 0 0 2.22 1.8l1.28-.23.33-.06 1.06-.19 5.65-1.02 1.08-.2a1.9 1.9 0 0 0 1.46-2.47l-3.05-9.03a5.26 5.26 0 0 0-10.33 1.9Z"/><path fill="#1C3760" d="M63.84 12.75C61.2 14.57 57.7 16.44 55 14.5a4.94 4.94 0 0 1-1.61-5.69c1.3-3.71 4.86-5.35 8.27-6.6C66.08.58 70.9-.72 75.48.45c4.58 1.17 8.62 5.6 7.8 10.25-.67 3.75-4.2 6.86-3.7 10.63.51 3.8 4.77 5.79 8.53 6.47 3.76.67 7.97.9 10.68 3.6 3.44 3.45 2.58 9.61-.66 13.26-3.25 3.64-8.14 5.29-12.89 6.41-6.28 1.49-13.08 2.27-19.05-.2-5.97-2.47-10.62-9.11-8.89-15.34.73-2.63 2.45-4.86 4.11-7.02 1.67-2.17 3.35-4.43 3.99-7.09.53-2.21.13-4.78-1.33-6.44a1.87 1.87 0 0 1-.25-2.18l.02-.05Z"/></g><defs><clipPath id="a"><path fill="#fff" d="M0 0h101v83H0z"/></clipPath></defs></svg>