<svg width="197" height="184" viewBox="0 0 197 184" fill="none" xmlns="http://www.w3.org/2000/svg">
<g clip-path="url(#clip0_918_59426)">
<path d="M181.683 140.584L190.476 141.958C193.452 138.355 195.504 134.079 196.453 129.503C190.024 134.766 180.246 131.969 172.45 134.842C170.026 135.757 167.838 137.206 166.049 139.081C164.26 140.956 162.917 143.21 162.117 145.675L157.82 150.298C161.71 151.838 165.887 152.516 170.065 152.286C174.242 152.056 178.319 150.923 182.016 148.966C184.08 147.847 185.994 146.473 187.714 144.876C184.637 142.939 181.683 140.584 181.683 140.584Z" fill="#F2F2F2"/>
<path d="M178.561 126.522L187.044 123.83C188.101 119.278 188.03 114.536 186.839 110.016C183.431 117.594 173.433 119.452 167.736 125.5C165.974 127.4 164.662 129.673 163.898 132.149C163.133 134.625 162.935 137.241 163.319 139.804L161.535 145.858C165.703 145.502 169.745 144.246 173.381 142.177C177.017 140.109 180.162 137.276 182.598 133.875C183.945 131.954 185.046 129.87 185.873 127.674C182.255 127.312 178.561 126.522 178.561 126.522Z" fill="#F2F2F2"/>
<path d="M196.5 153.099C196.5 153.144 196.491 153.189 196.474 153.231C196.457 153.273 196.431 153.311 196.399 153.343C196.367 153.375 196.329 153.401 196.287 153.418C196.245 153.435 196.2 153.444 196.155 153.444H0.845199C0.753647 153.444 0.665843 153.407 0.601106 153.343C0.536369 153.278 0.5 153.19 0.5 153.099C0.5 153.007 0.536369 152.919 0.601106 152.855C0.665843 152.79 0.753647 152.753 0.845199 152.753H196.155C196.2 152.753 196.245 152.762 196.287 152.779C196.329 152.797 196.367 152.822 196.399 152.854C196.431 152.886 196.457 152.924 196.474 152.966C196.491 153.008 196.5 153.053 196.5 153.099Z" fill="#CCCCCC"/>
<path d="M81.4322 138.382C115.877 138.382 143.8 110.459 143.8 76.0143C143.8 41.5696 115.877 13.6466 81.4322 13.6466C46.9874 13.6466 19.0645 41.5696 19.0645 76.0143C19.0645 110.459 46.9874 138.382 81.4322 138.382Z" fill="#E6E6E6"/>
<path d="M135.098 76.0142C135.104 84.388 133.148 92.6467 129.387 100.128C125.625 107.609 120.163 114.105 113.438 119.094C112.988 119.431 112.53 119.759 112.068 120.078C103.075 126.329 92.3851 129.68 81.4328 129.68C70.4805 129.68 59.7903 126.329 50.7972 120.078C50.336 119.759 49.8776 119.431 49.428 119.094C42.7075 114.101 37.2486 107.604 33.4875 100.124C29.7264 92.6434 27.7676 84.3869 27.7676 76.0142C27.7676 67.6416 29.7264 59.3851 33.4875 51.9047C37.2486 44.4244 42.7075 37.9277 49.428 32.9341C49.8776 32.5976 50.336 32.2698 50.7972 31.9507C59.7903 25.6995 70.4805 22.349 81.4328 22.349C92.3851 22.349 103.075 25.6995 112.068 31.9507C112.53 32.2698 112.988 32.5976 113.438 32.9341C120.163 37.9233 125.625 44.4191 129.387 51.9004C133.148 59.3818 135.104 67.6405 135.098 76.0142Z" fill="white"/>
<path d="M81.4321 125.038C108.507 125.038 130.456 103.089 130.456 76.0143C130.456 48.9391 108.507 26.9904 81.4321 26.9904C54.357 26.9904 32.4082 48.9391 32.4082 76.0143C32.4082 103.089 54.357 125.038 81.4321 125.038Z" fill="#7EBEFF"/>
<path opacity="0.2" d="M81.5604 27.1274C80.8172 27.1274 80.0786 27.1469 79.3436 27.1796C91.7341 28.2684 103.247 34.0264 111.551 43.2871C119.855 52.5478 124.328 64.6186 124.064 77.0541C123.8 89.4896 118.819 101.36 110.13 110.26C101.44 119.16 89.6931 124.424 77.2676 124.986C78.6825 125.109 80.1136 125.175 81.5604 125.175C94.5624 125.175 107.032 120.01 116.226 110.817C125.419 101.623 130.584 89.1533 130.584 76.1514C130.584 63.1494 125.419 50.68 116.226 41.4862C107.032 32.2925 94.5624 27.1275 81.5604 27.1275V27.1274Z" fill="black"/>
<path d="M81.5779 23.5094C81.155 23.5101 80.7496 23.6785 80.4505 23.9775C80.1515 24.2766 79.9832 24.6819 79.9824 25.1049V32.0668C79.9824 32.49 80.1505 32.8958 80.4497 33.195C80.7489 33.4942 81.1547 33.6623 81.5779 33.6623C82.001 33.6623 82.4068 33.4942 82.706 33.195C83.0052 32.8958 83.1733 32.49 83.1733 32.0668V25.1049C83.1726 24.6819 83.0042 24.2766 82.7052 23.9775C82.4062 23.6785 82.0008 23.5101 81.5779 23.5094Z" fill="white"/>
<path d="M113.437 32.9341C112.988 32.5976 112.529 32.2699 112.068 31.9508C111.791 31.9327 111.515 31.9872 111.266 32.1088C111.016 32.2304 110.803 32.4149 110.647 32.6441L106.728 38.3964C106.49 38.7461 106.4 39.176 106.479 39.5916C106.558 40.0072 106.799 40.3745 107.148 40.6126C107.498 40.8507 107.928 40.9402 108.344 40.8613C108.759 40.7824 109.127 40.5417 109.365 40.192L113.284 34.4397C113.433 34.2214 113.525 33.9694 113.552 33.7064C113.579 33.4435 113.539 33.178 113.437 32.9341Z" fill="white"/>
<path d="M131.243 59.1634C131.164 58.9695 131.048 58.793 130.901 58.644C130.753 58.495 130.579 58.3764 130.386 58.2951C130.193 58.2137 129.986 58.1711 129.776 58.1698C129.567 58.1685 129.359 58.2085 129.166 58.2874L122.714 60.9068C122.323 61.0664 122.01 61.3748 121.846 61.7645C121.682 62.1541 121.679 62.593 121.838 62.9847C121.997 63.3765 122.305 63.689 122.695 63.8537C123.084 64.0183 123.523 64.0216 123.915 63.8628L130.367 61.2433C130.758 61.083 131.07 60.7741 131.234 60.3843C131.398 59.9945 131.401 59.5555 131.243 59.1634Z" fill="white"/>
<path d="M56.1369 38.3964L52.2179 32.6441C52.0617 32.4149 51.8485 32.2304 51.5992 32.1088C51.3499 31.9872 51.0732 31.9327 50.7965 31.9508C50.3352 32.2699 49.8769 32.5976 49.4273 32.9341C49.3254 33.178 49.286 33.4435 49.3129 33.7064C49.3397 33.9694 49.4319 34.2214 49.581 34.4397L53.5 40.192C53.7382 40.5417 54.1054 40.7824 54.521 40.8613C54.9367 40.9402 55.3666 40.8507 55.7163 40.6126C56.0659 40.3745 56.3067 40.0073 56.3856 39.5916C56.4645 39.176 56.375 38.7461 56.1369 38.3964Z" fill="white"/>
<path d="M40.1508 60.9068L33.6994 58.2874C33.3074 58.1282 32.8683 58.1313 32.4786 58.2958C32.0889 58.4604 31.7805 58.773 31.6212 59.165C31.462 59.5569 31.465 59.996 31.6295 60.3858C31.794 60.7755 32.1065 61.084 32.4985 61.2433L38.9499 63.8627C39.3418 64.0215 39.7807 64.0183 40.1702 63.8536C40.5596 63.689 40.8678 63.3764 41.027 62.9847C41.1861 62.5929 41.1833 62.154 41.019 61.7644C40.8547 61.3748 40.5424 61.0663 40.1508 60.9068V60.9068Z" fill="white"/>
<path d="M81.5779 118.366C81.155 118.367 80.7496 118.535 80.4505 118.834C80.1515 119.133 79.9832 119.539 79.9824 119.962V126.924C79.9824 127.347 80.1505 127.753 80.4497 128.052C80.7489 128.351 81.1547 128.519 81.5779 128.519C82.001 128.519 82.4068 128.351 82.706 128.052C83.0052 127.753 83.1733 127.347 83.1733 126.924V119.962C83.1726 119.539 83.0042 119.133 82.7052 118.834C82.4062 118.535 82.0008 118.367 81.5779 118.366Z" fill="white"/>
<path d="M113.284 117.589L109.365 111.837C109.247 111.663 109.096 111.515 108.921 111.4C108.746 111.286 108.549 111.206 108.344 111.167C108.138 111.128 107.926 111.13 107.721 111.173C107.516 111.215 107.322 111.298 107.148 111.416C106.975 111.534 106.827 111.685 106.712 111.86C106.597 112.035 106.518 112.231 106.479 112.437C106.44 112.643 106.442 112.854 106.485 113.059C106.527 113.264 106.61 113.459 106.728 113.632L110.647 119.385C110.803 119.614 111.016 119.798 111.266 119.92C111.515 120.041 111.792 120.096 112.068 120.078C112.529 119.759 112.988 119.431 113.437 119.094C113.539 118.851 113.579 118.585 113.552 118.322C113.525 118.059 113.433 117.807 113.284 117.589Z" fill="white"/>
<path d="M130.367 90.7852L123.915 88.1658C123.523 88.0066 123.084 88.0097 122.694 88.1743C122.305 88.3388 121.996 88.6515 121.837 89.0434C121.678 89.4353 121.681 89.8745 121.845 90.2642C122.01 90.654 122.322 90.9624 122.714 91.1217L129.166 93.7412C129.558 93.9 129.997 93.8967 130.386 93.732C130.775 93.5674 131.084 93.2549 131.243 92.8631C131.402 92.4714 131.399 92.0325 131.235 91.6428C131.071 91.2532 130.758 90.9447 130.367 90.7852V90.7852Z" fill="white"/>
<path d="M55.7163 111.416C55.3666 111.178 54.9367 111.089 54.5211 111.167C54.1055 111.246 53.7382 111.487 53.5001 111.837L49.581 117.589C49.4319 117.807 49.3397 118.059 49.3129 118.322C49.286 118.585 49.3254 118.851 49.4273 119.094C49.8769 119.431 50.3352 119.759 50.7965 120.078C51.0732 120.096 51.3499 120.041 51.5992 119.92C51.8485 119.798 52.0617 119.614 52.2179 119.384L56.1369 113.632C56.2548 113.459 56.3375 113.264 56.3801 113.059C56.4228 112.854 56.4247 112.643 56.3856 112.437C56.3466 112.231 56.2673 112.035 56.1525 111.86C56.0376 111.685 55.8894 111.534 55.7163 111.416Z" fill="white"/>
<path d="M41.0268 89.0419C40.948 88.8479 40.8317 88.6714 40.6847 88.5224C40.5377 88.3734 40.3627 88.2548 40.1698 88.1735C39.9769 88.0921 39.7699 88.0496 39.5606 88.0482C39.3512 88.0469 39.1437 88.0869 38.9498 88.1658L32.4984 90.7853C32.1067 90.9448 31.7945 91.2532 31.6302 91.6429C31.4659 92.0325 31.463 92.4714 31.6222 92.8632C31.7814 93.2549 32.0895 93.5674 32.479 93.7321C32.8685 93.8967 33.3074 93.9 33.6993 93.7412L40.1507 91.1218C40.5421 90.9614 40.8541 90.6525 41.0183 90.2627C41.1825 89.8729 41.1855 89.4339 41.0268 89.0419Z" fill="white"/>
<path d="M83.6471 75.2226C83.7944 76.0947 83.5898 76.9896 83.0781 77.711C82.5665 78.4324 81.7895 78.9214 80.9178 79.0707L52.6063 83.8865C52.1744 83.96 51.7323 83.9476 51.3052 83.8502C50.8781 83.7528 50.4743 83.5722 50.117 83.3188C49.7596 83.0654 49.4557 82.744 49.2226 82.3731C48.9894 82.0022 48.8316 81.5891 48.7582 81.1572C48.6847 80.7253 48.697 80.2832 48.7944 79.8561C48.8918 79.4289 49.0724 79.0252 49.3259 78.6679C49.5793 78.3105 49.9006 78.0066 50.2715 77.7735C50.6424 77.5403 51.0556 77.3825 51.4875 77.3091L79.799 72.4933C80.6711 72.346 81.566 72.5506 82.2874 73.0623C83.0088 73.574 83.4978 74.3509 83.6471 75.2226Z" fill="#3F3D56"/>
<path d="M113.445 106.59C113.038 106.999 112.486 107.23 111.909 107.232C111.332 107.234 110.778 107.007 110.368 106.602L79.8909 76.3638C79.4819 75.9573 79.251 75.405 79.249 74.8283C79.247 74.2517 79.4741 73.6978 79.8802 73.2884C80.2864 72.8791 80.8384 72.6477 81.4151 72.6452C81.9917 72.6426 82.5458 72.8691 82.9555 73.2749L113.432 103.513C113.842 103.92 114.073 104.472 114.075 105.049C114.077 105.625 113.85 106.18 113.445 106.59Z" fill="#3F3D56"/>
<path d="M81.4322 79.7853C83.5149 79.7853 85.2033 78.0969 85.2033 76.0142C85.2033 73.9315 83.5149 72.2432 81.4322 72.2432C79.3495 72.2432 77.6611 73.9315 77.6611 76.0142C77.6611 78.0969 79.3495 79.7853 81.4322 79.7853Z" fill="#CCCCCC"/>
<path d="M55.4572 10.6235C49.6687 19.7241 40.8366 25.7637 29.9445 29.7314C29.7293 29.8926 29.4844 30.0098 29.2239 30.0764C28.9633 30.1429 28.6922 30.1575 28.4261 30.1193C28.1599 30.0811 27.9038 29.9908 27.6726 29.8537C27.4413 29.7165 27.2392 29.5351 27.078 29.3199C21.1616 21.4203 22.4975 10.1301 30.306 4.0938C32.1939 2.63697 34.3523 1.56966 36.656 0.953822C38.9596 0.337983 41.3627 0.185885 43.7257 0.506362C46.0886 0.826839 48.3644 1.6135 50.4208 2.82069C52.4773 4.02787 54.2734 5.63153 55.705 7.53856L55.8687 7.75705C56.0299 7.97228 56.1471 8.21715 56.2137 8.47769C56.2802 8.73822 56.2948 9.00932 56.2566 9.2755C56.2184 9.54167 56.1281 9.79772 55.991 10.029C55.8538 10.2603 55.6724 10.4623 55.4572 10.6235Z" fill="#E6E6E6"/>
<path d="M107.159 7.53855C108.591 5.63153 110.387 4.02787 112.443 2.82068C114.5 1.6135 116.776 0.82684 119.139 0.506363C121.502 0.185887 123.905 0.33798 126.208 0.953819C128.512 1.56966 130.67 2.63697 132.558 4.0938C140.367 10.1301 141.703 21.4202 135.786 29.3199C135.625 29.5351 135.423 29.7165 135.192 29.8537C134.96 29.9908 134.704 30.0811 134.438 30.1193C134.172 30.1575 133.901 30.1429 133.64 30.0763C133.38 30.0098 133.135 29.8926 132.92 29.7314C122.808 25.8601 114.516 19.1609 107.407 10.6235C106.972 10.2979 106.685 9.81305 106.608 9.27548C106.531 8.73792 106.67 8.19172 106.996 7.75704L107.159 7.53855Z" fill="#E6E6E6"/>
<path d="M104.623 130.048C104.254 130.255 103.983 130.6 103.868 131.007C103.753 131.414 103.804 131.849 104.01 132.219L113.218 148.673C113.424 149.042 113.769 149.314 114.176 149.429C114.583 149.544 115.02 149.493 115.389 149.286C115.758 149.079 116.03 148.735 116.145 148.327C116.26 147.92 116.209 147.484 116.002 147.115L106.794 130.661C106.587 130.292 106.242 130.02 105.835 129.905C105.428 129.791 104.992 129.842 104.623 130.048Z" fill="#E6E6E6"/>
<path d="M56.0709 130.661L46.8632 147.115C46.6566 147.484 46.6052 147.92 46.7203 148.327C46.8353 148.735 47.1073 149.079 47.4765 149.286C47.8457 149.493 48.2818 149.544 48.689 149.429C49.0962 149.314 49.441 149.042 49.6477 148.673L58.8555 132.219C58.9579 132.036 59.0232 131.835 59.0478 131.627C59.0724 131.419 59.0558 131.208 58.9988 131.006C58.9419 130.804 58.8458 130.616 58.716 130.451C58.5863 130.287 58.4254 130.15 58.2425 130.047C58.0596 129.945 57.8584 129.88 57.6503 129.855C57.4422 129.83 57.2313 129.847 57.0296 129.904C56.828 129.961 56.6395 130.057 56.475 130.187C56.3105 130.317 56.1732 130.478 56.0709 130.661H56.0709Z" fill="#E6E6E6"/>
<path d="M115.082 152.886C117.805 152.886 120.013 150.678 120.013 147.955C120.013 145.231 117.805 143.023 115.082 143.023C112.358 143.023 110.15 145.231 110.15 147.955C110.15 150.678 112.358 152.886 115.082 152.886Z" fill="#E6E6E6"/>
<path d="M118.563 26.7003C121.287 26.7003 123.495 24.4925 123.495 21.7689C123.495 19.0454 121.287 16.8375 118.563 16.8375C115.84 16.8375 113.632 19.0454 113.632 21.7689C113.632 24.4925 115.84 26.7003 118.563 26.7003Z" fill="#E6E6E6"/>
<path d="M81.1423 15.0969C83.8659 15.0969 86.0737 12.8891 86.0737 10.1655C86.0737 7.44199 83.8659 5.23413 81.1423 5.23413C78.4188 5.23413 76.2109 7.44199 76.2109 10.1655C76.2109 12.8891 78.4188 15.0969 81.1423 15.0969Z" fill="#E6E6E6"/>
<path d="M45.4617 26.1201C48.1852 26.1201 50.3931 23.9123 50.3931 21.1887C50.3931 18.4652 48.1852 16.2573 45.4617 16.2573C42.7381 16.2573 40.5303 18.4652 40.5303 21.1887C40.5303 23.9123 42.7381 26.1201 45.4617 26.1201Z" fill="#E6E6E6"/>
<path d="M48.6531 152.886C51.3766 152.886 53.5845 150.678 53.5845 147.955C53.5845 145.231 51.3766 143.023 48.6531 143.023C45.9295 143.023 43.7217 145.231 43.7217 147.955C43.7217 150.678 45.9295 152.886 48.6531 152.886Z" fill="#E6E6E6"/>
<path d="M133.562 172.459L133.774 172.996H133.562V172.459Z" fill="#2F2E41"/>
<path d="M184.288 99.1217C187.989 99.1217 190.99 96.1208 190.99 92.4191C190.99 88.7173 187.989 85.7164 184.288 85.7164C180.586 85.7164 177.585 88.7173 177.585 92.4191C177.585 96.1208 180.586 99.1217 184.288 99.1217Z" fill="#FF9500"/>
<path d="M184.259 9.62172C183.643 13.7129 184.746 14.569 184.752 32.2068C184.758 49.8446 188.418 73.4925 184.281 73.494C180.143 73.4954 178.63 24.6912 164.264 20.3718C147.373 15.2933 186.252 -3.6223 184.259 9.62172Z" fill="#FF9500"/>
<g clip-path="url(#clip1_918_59426)">
<path d="M164.18 128.231C164.782 128.409 165.49 128.373 166.127 128.196C166.765 127.984 167.367 127.629 167.863 127.134C168.359 126.638 168.713 126.071 168.925 125.398C169.138 124.761 169.138 124.053 168.961 123.38L169.031 123.521C168.819 123.238 168.677 122.99 168.536 122.707C168.394 122.459 168.217 122.211 168.075 122.034C167.898 121.857 167.721 121.715 167.579 121.68C167.438 121.644 167.225 121.68 167.013 121.786L167.119 121.715C166.8 122.034 166.552 122.459 166.411 122.919C166.305 123.38 166.305 123.876 166.446 124.265C166.623 124.69 166.907 125.009 167.332 125.221C167.438 125.257 167.544 125.292 167.65 125.363L168.04 125.469C168.288 125.54 168.536 125.611 168.819 125.646C169.846 125.823 170.908 125.752 171.9 125.434C172.892 125.115 173.777 124.548 174.521 123.805L175.229 124.478C174.414 125.363 173.352 126.036 172.219 126.39C171.085 126.744 169.846 126.85 168.677 126.638C168.394 126.602 168.075 126.532 167.792 126.425L167.367 126.284C167.225 126.213 167.084 126.177 166.907 126.107C166.305 125.823 165.809 125.257 165.561 124.619C165.1 123.309 165.525 121.928 166.482 121.042L166.517 121.007L166.588 120.972C166.907 120.794 167.332 120.688 167.792 120.794C168.252 120.901 168.536 121.184 168.748 121.467C168.961 121.751 169.138 121.999 169.279 122.282C169.421 122.53 169.563 122.813 169.74 123.026L169.775 123.096L169.811 123.167C169.988 123.982 169.988 124.832 169.775 125.611C169.563 126.425 169.138 127.134 168.571 127.771C168.004 128.373 167.332 128.869 166.623 129.258C165.88 129.648 165.065 129.931 164.18 130.073V128.231Z" fill="#36353A"/>
<path d="M168.784 140.096C168.252 142.964 167.438 145.337 165.525 147.568C164.605 148.63 163.578 149.551 162.409 150.33C160.957 151.322 159.328 152.101 157.628 152.597C155.716 153.199 153.662 153.482 151.608 153.447C151.112 153.447 150.652 153.411 150.156 153.376C148.562 153.376 146.969 153.376 145.304 153.305C143.675 153.234 142.011 153.163 140.346 153.057C138.753 152.88 137.159 152.668 135.53 152.349C128.093 151.428 118.212 148.56 117.079 140.202C116.831 138.537 116.796 136.908 116.973 135.315C117.185 130.25 119.487 125.576 123.241 122.672C124.481 121.716 125.897 120.937 127.42 120.405C133.228 118.28 139.213 118.033 145.162 118.812C147.146 119.06 149.129 119.449 151.041 119.945C159.151 122.105 168.111 126.319 168.677 135.633C169.031 137.121 169.031 138.608 168.784 140.096Z" fill="#DCDEE5"/>
<path d="M158.23 147.603C158.124 149.621 157.947 151.25 157.664 152.596C155.752 153.198 153.698 153.481 151.644 153.446C151.679 153.127 151.75 152.809 151.856 152.419C155.929 139.032 144.171 129.364 137.69 119.873C140.701 121.998 143.959 124.406 147.004 127.133C148.527 128.479 149.979 129.931 151.325 131.454C155.008 136.058 158.514 141.441 158.23 147.603Z" fill="#36353A"/>
<path d="M130.856 133.189C131.246 129.081 131.777 124.477 129.298 120.405C134.504 121.396 136.31 127.133 138.364 131.489C139.285 134.181 137.301 137.049 134.716 137.722C132.45 138.147 130.112 136.341 130.856 133.189Z" fill="#36353A"/>
<path d="M153.875 120.795C152.352 120.441 151.325 120.264 149.873 120.335C151.856 123.239 154.3 125.505 155.504 128.622C156.885 127.063 155.398 125.363 155.221 123.876C154.866 122.778 154.441 121.645 153.875 120.795Z" fill="#36353A"/>
<path d="M168.784 135.669C166.305 140.06 164.074 144.31 161.17 148.099C165.207 147.781 168.43 144.062 168.784 140.096C169.032 138.608 169.032 137.121 168.784 135.669Z" fill="#36353A"/>
<path d="M139.071 114.136C139.071 114.136 150.297 106.805 152.422 110.736C153.874 113.428 153.379 118.351 150.616 118.775C147.854 119.165 146.65 124.619 146.65 124.619L139.071 114.136Z" fill="#CED2DB"/>
<path d="M111.236 116.615C111.236 116.615 98.027 110.63 97.0709 114.774C96.1147 118.917 106.278 133.579 111.095 129.612C115.911 125.717 111.236 116.615 111.236 116.615Z" fill="#CED2DB"/>
<path d="M142.365 118.953C142.365 118.953 146.402 114.526 148.704 115.659C151.006 116.793 145.694 120.795 145.304 122.601C144.879 124.407 141.267 120.157 142.365 118.953Z" fill="#4F5156"/>
<path d="M111.449 125.186C110.954 123.875 109.927 122.848 108.616 122.353C106.243 121.467 102.171 120.157 102.206 121.538C102.242 123.486 107.766 130.71 110.599 128.833C112.016 127.913 111.91 126.425 111.449 125.186Z" fill="#4F5156"/>
<path d="M148.138 138.714C148.067 138.997 147.996 139.245 147.925 139.493C147.571 140.732 147.111 141.972 146.58 143.14C145.057 146.434 142.897 149.373 140.205 151.569C138.647 152.029 137.018 152.454 135.283 152.809C133.901 152.667 132.52 152.313 131.139 151.746C130.077 151.534 128.944 151.427 127.81 151.357C124.411 151.782 120.232 152.454 116.726 151.498C116.655 151.498 116.584 151.463 116.513 151.427C116.478 151.392 116.407 151.357 116.372 151.321C113.007 148.771 110.387 145.301 108.616 141.405C108.191 140.449 107.801 139.457 107.483 138.43C107.447 138.36 107.447 138.289 107.412 138.218C106.208 134.499 105.747 130.498 106.102 126.567C106.527 121.679 108.51 117.005 111.662 113.145C121.577 101.493 140.205 107.691 146.084 120.405C147.111 122.317 147.89 124.371 148.386 126.567C149.271 130.533 149.165 134.747 148.138 138.714Z" fill="#CED2DB"/>
<path d="M143.356 149.763C141.444 151.392 136.522 153.021 136.097 153.127C128.837 154.721 118.815 153.587 113.255 149.267C106.455 143.99 107.093 133.543 114.282 128.797C123.879 122.458 140.205 124.512 145.906 133.968C148.952 139.103 147.925 145.867 143.356 149.763Z" fill="#4F5156"/>
<path d="M138.257 109.037C140.771 111.693 119.417 122.211 119.346 116.403C120.231 116.19 120.054 114.916 119.133 114.986C110.953 116.403 102.064 118.847 114.53 107.974C106.526 111.162 116.407 99.0499 138.257 109.037Z" fill="#4F5156"/>
<path d="M116.262 123.039L112.249 124.437L112.715 125.774L116.728 124.376L116.262 123.039Z" fill="#4F5156"/>
<path d="M139.05 124.025L135.001 122.735L134.571 124.085L138.62 125.375L139.05 124.025Z" fill="#4F5156"/>
<path d="M138.505 142.999C140.842 142.397 144.631 139.918 145.41 141.901C146.189 143.884 145.481 146.47 145.977 148.701C146.048 149.019 146.154 149.338 146.189 149.692C146.296 150.684 146.048 151.675 144.879 152.632C141.444 154.969 138.788 153.729 138.894 150.648C138.788 150.401 138.682 150.117 138.575 149.869C138.469 149.586 138.363 149.303 138.257 149.019C137.584 147.32 136.911 145.655 136.911 145.655C136.734 145.195 136.805 144.628 137.088 144.168C137.371 143.672 137.867 143.247 138.505 142.999Z" fill="#CED2DB"/>
<path d="M115.734 142.255C117.788 143.495 122.215 144.451 121.365 146.399C120.515 148.346 118.142 149.657 116.903 151.569C116.726 151.852 116.549 152.136 116.336 152.384C115.699 153.163 114.813 153.658 113.326 153.517C112.83 153.411 112.37 153.304 111.945 153.127C111.52 152.986 111.166 152.773 110.847 152.596C106.704 149.55 110.599 143.176 114.778 141.972C115.097 142.007 115.416 142.113 115.734 142.255Z" fill="#CED2DB"/>
<path d="M173.104 146.187C173.033 146.506 172.998 146.895 172.962 147.285C172.785 149.233 172.892 151.782 171.971 152.632C171.758 152.845 171.475 152.951 171.086 152.916C167.261 152.562 162.763 154.368 159.753 150.968C159.434 150.685 159.257 150.33 159.222 149.941C159.151 149.551 159.222 149.126 159.328 148.701C159.647 147.497 160.143 146.647 160.78 146.045C161.099 145.727 161.453 145.514 161.843 145.302C165.207 144.204 169.209 142.716 172.715 144.381C172.962 144.877 173.14 145.514 173.104 146.187Z" fill="#DCDEE5"/>
<path d="M177 123.558C177 123.735 176.894 123.876 176.752 123.947L175.583 124.549C175.512 124.585 175.442 124.62 175.371 124.62C175.194 124.726 174.946 124.762 174.698 124.691C174.45 124.62 174.237 124.479 174.096 124.266C173.954 124.054 173.919 123.806 173.954 123.522C174.662 122.849 174.662 121.433 176.079 121.787C176.787 122.141 175.017 123.204 176.539 123.062C176.823 123.097 177.035 123.31 177 123.558Z" fill="#36353A"/>
</g>
</g>
<defs>
<clipPath id="clip0_918_59426">
<rect width="196" height="183.317" fill="white" transform="translate(0.5 0.341675)"/>
</clipPath>
<clipPath id="clip1_918_59426">
<rect width="80" height="48.8362" fill="white" transform="translate(97 105)"/>
</clipPath>
</defs>
</svg>
