<svg xmlns="http://www.w3.org/2000/svg" fill="none" viewBox="0 0 110 100"><path fill="#E6E6E6" d="M104.12 74.58c-.12 4.52-.87 9-2.23 13.3l-.1.3h-8.3l.03-.3c.55-6.43 3.74-45.58-.07-52.27.33.54 11.31 18.53 10.67 38.97Z"/><path fill="#E6E6E6" d="m103.5 87.88-.22.3h-6.23l.16-.3c1.03-1.87 4.08-7.49 6.9-13.3 3.05-6.25 5.84-12.74 5.6-15.1.08.54 2.18 16.68-6.21 28.4ZM8.18 81.44c.06 2.22.42 4.41 1.09 6.53l.05.15h4.08l-.02-.15c-.27-3.16-1.84-22.38.04-25.67-.17.27-5.56 9.1-5.24 19.14Z"/><path fill="#E6E6E6" d="m8.48 87.97.11.15h3.06l-.08-.15c-.5-.92-2-3.68-3.4-6.53-1.48-3.07-2.85-6.26-2.74-7.41-.03.26-1.07 8.19 3.05 13.94Z"/><path fill="#fff" d="M86.21 88.17H43.63a.79.79 0 0 1-.56-.23.8.8 0 0 1-.23-.57V76.7a.8.8 0 0 1 .23-.56.79.79 0 0 1 .56-.23H86.2c.21 0 .41.08.56.23a.8.8 0 0 1 .23.56v10.67a.8.8 0 0 1-.23.57.79.79 0 0 1-.56.23ZM43.63 76.23a.47.47 0 0 0-.34.14.48.48 0 0 0-.14.33v10.67c0 .13.05.25.14.34.1.1.21.14.34.14H86.2c.13 0 .25-.05.34-.14a.48.48 0 0 0 .13-.34V76.7a.48.48 0 0 0-.13-.33.47.47 0 0 0-.34-.14H43.63Z"/><path fill="#fff" d="M50.24 84.87a3.23 3.23 0 0 0 3.22-3.24c0-1.8-1.44-3.24-3.22-3.24a3.23 3.23 0 0 0-3.2 3.24c0 1.8 1.43 3.24 3.2 3.24ZM57.66 79.47a.53.53 0 0 0-.37.16.54.54 0 0 0 .37.92H82.9a.54.54 0 0 0 0-1.08H57.66ZM57.66 82.71a.53.53 0 0 0-.38.16.54.54 0 0 0 .38.92h10.86c.15 0 .28-.05.38-.16a.54.54 0 0 0-.38-.92H57.66ZM96.85 72.35H54.26c-.2 0-.4-.08-.55-.23a.8.8 0 0 1-.24-.56V60.89a.8.8 0 0 1 .24-.56.78.78 0 0 1 .55-.24h42.59a.8.8 0 0 1 .79.8v10.67a.8.8 0 0 1-.23.56.79.79 0 0 1-.56.23ZM54.26 60.41a.47.47 0 0 0-.33.14.48.48 0 0 0-.14.34v10.67c0 .12.05.25.14.34.09.08.2.14.33.14h42.59c.12 0 .24-.06.33-.14a.48.48 0 0 0 .14-.34V60.89a.48.48 0 0 0-.14-.34.47.47 0 0 0-.33-.14H54.26Z"/><path fill="#fff" d="M60.88 69.06a3.23 3.23 0 0 0 3.21-3.25c0-1.79-1.44-3.24-3.21-3.24a3.23 3.23 0 0 0-3.21 3.24c0 1.8 1.44 3.25 3.21 3.25ZM68.3 63.65a.53.53 0 0 0-.38.16.54.54 0 0 0 .38.92h25.24c.14 0 .28-.05.38-.16a.54.54 0 0 0-.38-.92H68.3ZM68.3 66.9a.53.53 0 0 0-.38.15.54.54 0 0 0 .38.93h10.86a.54.54 0 0 0 0-1.08H68.3ZM88.57 45.65H46a.79.79 0 0 1-.56-.24.8.8 0 0 1-.23-.56V8.07a.8.8 0 0 1 .23-.56.79.79 0 0 1 .56-.24h42.58a.8.8 0 0 1 .79.8v36.78a.8.8 0 0 1-.23.56.79.79 0 0 1-.56.24ZM46 7.59a.47.47 0 0 0-.33.14.48.48 0 0 0-.14.34v36.78c0 .13.05.25.14.34.08.09.2.14.33.14h42.58c.13 0 .25-.05.34-.14a.48.48 0 0 0 .14-.34V8.07a.48.48 0 0 0-.14-.34.47.47 0 0 0-.34-.14H46Z"/><path fill="#fff" d="M52.6 42.35a3.23 3.23 0 0 0 3.22-3.24c0-1.8-1.44-3.25-3.21-3.25a3.23 3.23 0 0 0-3.22 3.25c0 1.79 1.44 3.24 3.22 3.24ZM60.03 36.94a.53.53 0 0 0-.38.16.54.54 0 0 0 .38.92h25.24c.14 0 .28-.05.38-.15a.54.54 0 0 0-.38-.93H60.03ZM60.03 40.19a.53.53 0 0 0-.38.16.54.54 0 0 0 .38.92h10.86a.54.54 0 0 0 0-1.08H60.03Z"/><path fill="#FFB8B8" d="m18.95 46.85.48 4.02c.04.33.15.65.33.92.17.27.4.5.68.66a1.94 1.94 0 0 0 2.48-.41 2.14 2.14 0 0 0 .52-1.62 2.2 2.2 0 0 0-.25-.83l-2.02-3.87-.66-16.63-4.28 1.05 2.72 16.7Z"/><path fill="#007ABA" d="m35.98 84.22-3.47.33-2.04-29.17-.08 7.49-7.56 20.63-3-2.42 4.97-20.55-2.37-11.44h15.44l-1.9 35.13Z"/><path fill="#2F2E41" d="m39.3 88.18-6.7-.16a1.82 1.82 0 0 1-1.92-2.09l.27-1.72a1.47 1.47 0 0 1 1.36-1.23c1.14 1.18 2.32 1 3.53-.25l2.77 2.79.4-.06a1.38 1.38 0 0 1 1.55 1.58 1.37 1.37 0 0 1-1.26 1.14ZM24.35 88.08l-6.08-2.67c-.25-.1-.47-.28-.66-.5-.18-.22-.32-.5-.4-.78a2.36 2.36 0 0 1 .22-1.77l.94-1.63c.18-.3.45-.54.75-.65.31-.12.64-.1.94.03.53 1.75 1.64 2.13 3.22 1.41l1.55 3.5.38.14c.3.11.57.34.73.66a1.75 1.75 0 0 1-.02 1.69c-.11.19-.26.34-.43.46a1.16 1.16 0 0 1-1.14.11Z"/><path fill="#FFB8B8" d="M30.2 12.73a4.07 4.07 0 0 0 4.06-4.1c0-2.25-1.81-4.08-4.05-4.08a4.07 4.07 0 0 0-4.06 4.09c0 2.26 1.82 4.09 4.06 4.09Z"/><path fill="#FFB8B8" d="m30.66 16.36-7.22-.16c1.99-2.26 3.19-4.62 3.37-7.1h3.85v7.26Z"/><path fill="#2EB9F2" d="M37.87 51.82C31.4 50.05 25.35 48.86 21.6 51c.65-7.36-.1-16.76-2.36-26.57-.73-3.2-.24-6.07 2.43-7.7l3.58-2.2 5.47.17 2.86 1.68a7.43 7.43 0 0 1 3.22 3.45c.7 1.49.9 3.18.62 4.81-1.54 8.6-.7 17.9.45 27.17Z"/><path fill="#FFB8B8" d="m39.96 46.2.6 4.08a2.06 2.06 0 0 1-.66 1.83 2.27 2.27 0 0 1-1.92.6 2.31 2.31 0 0 1-1.53-.94 2.1 2.1 0 0 1-.31-1.7l1.11-4.35-3.89-16.47 4.9-.16 1.7 17.12Z"/><path fill="#2EB9F2" d="m22.54 30.9-7.21-.45c.56-7.1 2.17-10.97 4.6-12.27l2.61 3.07v9.66Z"/><path fill="#2F2E41" d="M32.91 7.23c-1.32-.48-2 2.6-3.97 4.52-.45.43-1.56-1.26-1.95-.74l-.63-2.19c-.75-2.6.6-5.42 2.95-5.99a3.8 3.8 0 0 1 3.14.64 4.78 4.78 0 0 1 1.8 2.75.72.72 0 0 1-.07.5.6.6 0 0 1-.15.18.53.53 0 0 1-.2.1l-.92.23Z"/><path fill="#2EB9F2" d="m39.67 29.4-6.9 1.5-.31-10.9 3.92.15 3.3 9.24Z"/><path fill="#E6E6E6" d="M109.06 87.88H0v.3h109.06v-.3Z"/><path fill="#007ABA" d="M98.7 32.82H56.1a.79.79 0 0 1-.55-.24.8.8 0 0 1-.23-.56V13.15a.8.8 0 0 1 .23-.57.79.79 0 0 1 .56-.23h42.58c.21 0 .41.08.56.23a.8.8 0 0 1 .23.57v18.87a.8.8 0 0 1-.23.56.79.79 0 0 1-.56.24Z"/><path fill="#fff" d="M64.78 18.93a.53.53 0 0 0-.5.33.54.54 0 0 0 .3.7c.06.04.13.05.2.05h25.24a.54.54 0 0 0 0-1.08H64.78ZM64.78 22.06a.53.53 0 0 0-.5.34.55.55 0 0 0 .3.7c.06.03.13.04.2.04h25.24c.14 0 .28-.05.38-.16a.54.54 0 0 0-.38-.92H64.78ZM64.78 25.16a.53.53 0 0 0-.38.16.54.54 0 0 0 .38.92h10.86a.54.54 0 0 0 0-1.08H64.78Z"/></svg>