<svg xmlns="http://www.w3.org/2000/svg" fill="none" viewBox="0 0 149 144"><path fill="#26518d" d="M49.78203 144c-1.151 0-2.375-.504-3.166-1.439l-6.621-7.269c-1.439-1.583-1.511-4.03-.072-5.685l7.412-8.635-8.132-10.363c-1.439-1.871-1.151-4.606.72-6.045s4.606-1.152 6.045.719l10.363 13.17c1.295 1.583 1.223 3.886-.144 5.469l-7.196 8.42 4.101 4.462c1.584 1.727 1.512 4.461-.287 6.117-.936.719-1.943 1.079-3.023 1.079zM100.01303 131.262c-.432 0-.864-.072-1.295-.216l-9.428-3.022c-1.439-.432-2.59-1.655-2.878-3.166l-2.663-11.731-13.457-5.397c-2.231-.863-3.31-3.382-2.375-5.613.864-2.231 3.382-3.3104 5.613-2.3749l15.544 6.1889c1.296.504 2.303 1.655 2.591 3.094l2.591 11.515 7.052 2.231c2.303.719 3.527 3.166 2.807 5.397-.576 1.943-2.303 3.094-4.102 3.094zM109.15203 108.666c-.215 0-.431 0-.647-.072l-11.443-1.871c-1.511-.288-2.734-1.368-3.094-2.879l-7.556-31.952c-.504-2.015.791-4.1019 2.806-4.6057 2.015-.5037 4.102.7916 4.606 2.8066l6.981 29.5053 8.923 1.5108c2.087.36 3.454 2.303 3.095 4.39-.216 1.871-1.8 3.167-3.671 3.167zM4.30103 112.264c-1.871 0-3.598-1.224-4.102-3.095-.72-2.302.576-4.677 2.878-5.397l9.212-2.806 2.95-25.1159c.288-2.3748 2.447-4.03 4.822-3.8141 2.375.2879 4.03 2.4468 3.814 4.8216l-3.238 27.9224c-.216 1.727-1.368 3.166-3.023 3.598l-11.946 3.598c-.504.216-.935.288-1.367.288zM67.70103 84.8457l-11.946-.7916c-7.412.5757-14.609-1.6552-20.366-6.4768-5.541-4.6057-9.067-11.0824-10.003-18.2069l-13.241-23.8201-.072-.9355c-.72-7.5562 1.583-14.8966 6.405-20.7257 4.821-5.82904 11.658-9.42724 19.142-10.07491l22.741-2.08696c15.544-1.43928 29.361 10.07497 30.8 25.61917l.072.7197-7.7 30.5127c.576 6.2609 1.008 12.1619-.647 16.7676-2.087 5.6132-6.909 8.7077-14.825 9.4273zm-12.018-9.4273 11.946.7916c7.772-.7916 8.636-2.8786 7.269-17.4873l-.072-.7196 7.7-30.4408c-1.368-10.4348-10.723-18.06296-21.302-17.0555l-22.74 2.087c-5.254.5037-9.931 2.9505-13.314 7.0525-3.166 3.8141-4.749 8.5637-4.533 13.5292l13.241 23.7481.072.9356c1.008 10.7946 10.579 18.7826 21.373 17.7751z"/><path fill="#7f95b9" d="M55.75503 115.142c24.046 0 43.538-19.4923 43.538-43.5379 0-24.0455-19.492-43.5382-43.538-43.5382-24.045 0-43.538 19.4927-43.538 43.5382 0 24.0456 19.493 43.5379 43.538 43.5379z"/><path fill="#eee" d="M57.91403 105.787c18.481 0 33.463-14.9819 33.463-33.4631 0-18.4813-14.982-33.4633-33.463-33.4633s-33.463 14.982-33.463 33.4633c0 18.4812 14.982 33.4631 33.463 33.4631z"/><path fill="#e6d165" d="m32.29503 32.168-24.756 20.4377c-.575.5038-1.583.072-2.087-.7916l-2.59-4.3898c-3.743-6.3328-3.455-13.3133.719-16.6956l7.988-6.6207c4.174-3.4543 11.011-2.3748 16.552 2.4468l3.814 3.3823c.72.7196.936 1.7991.36 2.2309zM95.55103 44.114l-22.884-15.6882c-.504-.3598-.432-1.2953.144-1.943l3.022-3.1664c4.39-4.6057 10.219-6.045 14.033-3.3823l7.412 5.1094c3.814 2.6627 4.606 8.6357 1.871 14.3209l-1.871 3.958c-.359.7196-1.223 1.1514-1.727.7916z"/><path fill="#e6d165" d="M6.10003 28.0659c2.186 0 3.958-1.772 3.958-3.958 0-2.1859-1.772-3.958-3.958-3.958s-3.958 1.7721-3.958 3.958c0 2.186 1.772 3.958 3.958 3.958zM95.33503 23.4603c1.908 0 3.455-1.5465 3.455-3.4543 0-1.9077-1.547-3.4542-3.455-3.4542-1.907 0-3.454 1.5465-3.454 3.4542 0 1.9078 1.547 3.4543 3.454 3.4543z"/><path fill="#e9e7e5" d="M139.23303 20.8696h-15.544c-.863 1.3673-2.159 2.5187-3.67 3.0944l-1.223.5038.144-.4318c.359-1.0795.143-2.2309-.504-3.1664-4.966 0-8.996-4.03-8.996-8.9955V9.06747c-.072-5.03748 3.958-9.06747 8.924-9.06747h20.869c4.966 0 8.996 4.02998 8.996 8.9955v2.8066c0 5.0375-4.03 9.0675-8.996 9.0675z"/><path fill="#7f95b9" d="M120.88303 12.9535c1.192 0 2.158-.9666 2.158-2.159 0-1.1923-.966-2.15888-2.158-2.15888-1.193 0-2.159.96658-2.159 2.15888 0 1.1924.966 2.159 2.159 2.159zM129.51803 12.9535c1.193 0 2.159-.9666 2.159-2.159 0-1.1923-.966-2.15888-2.159-2.15888-1.192 0-2.159.96658-2.159 2.15888 0 1.1924.967 2.159 2.159 2.159zM138.15403 12.9535c1.192 0 2.159-.9666 2.159-2.159 0-1.1923-.967-2.15888-2.159-2.15888-1.192 0-2.159.96658-2.159 2.15888 0 1.1924.967 2.159 2.159 2.159z"/><path stroke="#7f95b9" stroke-miterlimit="10" stroke-width="2.87856" d="m61.51203 73.0435-5.397 11.1544M50.35803 56.1318l11.514 16.5518"/><path stroke="#7f95b9" stroke-miterlimit="10" stroke-width=".71964" d="m61.51203 72.6836 11.155-23.0284"/><path fill="#26518d" d="M61.87203 77.0015c2.385 0 4.318-1.9331 4.318-4.3178s-1.933-4.3179-4.318-4.3179-4.318 1.9332-4.318 4.3179c0 2.3847 1.933 4.3178 4.318 4.3178z"/></svg>