<svg xmlns="http://www.w3.org/2000/svg" fill="none" viewBox="0 0 375 144"><path fill="#dce5f2" d="M288.414 98.1747c-4.381 0-6.572 1.8128-8.536 3.4743-1.359 1.133-2.2181 2.4267-4.0311 2.8037l-1.832.8176-2.1429-1.2043c-1.738-.377-2.871-1.284-4.23-2.417-1.964-1.6615-4.155-3.4743-8.46-3.4743-4.305 0-6.496 1.8128-8.46 3.4743-1.359 1.133-3.1045 2.8525-5.0113 2.8545l-2.9374-.2813c-.756-.151-1.4173-.6092-2.0973-1.0622-2.341-1.435-5.136-2.115-8.158-2.115h-.679v-1.1331h-6.345v-2.3415c0-6.0428-4.91-10.877-10.877-10.877h-8.233c-.378-.9064-1.285-1.5106-2.342-1.5106h-.076c-1.435 0-2.568 1.133-2.568 2.5681v16.3151h-26.437v-7.6286c.151 0 .302.0755.454.0755h9.743c.756 0 1.36-.3021 1.889-.7553.453-.4532.755-1.0575.755-1.7373.076-1.5107-1.284-2.7948-2.795-2.7948h-10.046v-3.7012c0-1.4351-1.133-2.5681-2.568-2.5681h-.075c-1.209 0-2.191.8308-2.493 1.8883h-13.521c-6.042 0-10.877 4.9097-10.877 10.877v2.4925h-6.042v1.511h-1.058c-3.021 0-5.816.755-8.158 2.115-.075 0-.151.075-.226.151-1.133.68-2.342.906-3.852.906-1.662 0-2.871-.377-3.853-.906-.755-.453-1.435-1.058-2.19-1.662-1.964-1.662-4.154-3.4745-8.46-3.4745-4.305 0-6.496 1.8125-8.46 3.4745-.755.604-1.435 1.209-2.19 1.662-.9822.604-2.1908.906-3.8525.906-1.6618 0-2.8703-.377-3.8523-.906-.7553-.453-1.4351-1.058-2.1905-1.662-1.5106-1.284-3.2479-2.7192-6.0427-3.2479v-1.0575c0-24.4731 19.79-44.2631 44.263-44.2631 2.795 0 5.514.2266 8.158.7553C147.542 36.3876 166.955 24 189.313 24c29.005 0 53.176 20.923 58.237 48.493h.68c17.826 0 33.159 10.4993 40.184 25.6817z"/><path fill="#dce5f2" d="m93.2332 104.066-6-.9063c-.0756-.302-1.4653-.055-1.8559-.0756-.151-1.284-.3018-2.568-.3773-3.9275 2.7948.5288 4.4565 1.9635 6.0427 3.2485.7554.604 1.4352 1.208 2.1905 1.661zm29.0808 0h-6.269c-1.133-.831-2.417-1.359-4.457-1.359-2.039 0-3.28.2311-4.413 1.0621l-6.313.2969c.756-.453 1.435-1.057 2.191-1.661 1.964-1.662 4.154-3.4751 8.46-3.4751 4.305 0 6.496 1.8131 8.459 3.4751.907.604 1.587 1.208 2.342 1.661z"/><path fill="#DCE5F2" d="M187.727 94.0203c-.076.6798-.302 1.2841-.756 1.7373-.453.4532-1.133.7553-1.888.7553h-9.744c-.151 0-.302 0-.453-.0755v7.6286h-44.867c.075-.075.151-.075.226-.151 2.342-1.435 5.136-2.115 8.158-2.115h.982v-1.51h6.043v-2.493c0-6.0427 4.909-10.8769 10.876-10.8769h13.37c.302-1.0575 1.284-1.8884 2.493-1.8884h.075c1.435 0 2.568 1.133 2.568 2.5682v3.6256h10.046c1.587 0 2.946 1.2086 2.871 2.7948Zm55.14 10.0457h-41.544V87.7509c0-1.4351 1.133-2.5682 2.568-2.5682h.076c1.057 0 1.964.6043 2.342 1.5107h8.233c6.042 0 10.877 4.9098 10.877 10.877v2.3415h6.42v1.1331h.68c3.021 0 5.816.755 8.158 2.115.679.453 1.435.755 2.19.906Z"/><path fill="#dce5f2" d="M271.947 104.066h-7.176c-1.436-1.208-2.946-2.115-5.514-2.115s-3.928.907-5.438 2.115h-7.252c1.738-.377 2.871-1.284 4.23-2.417 1.964-1.6616 4.155-3.4744 8.46-3.4744 4.306 0 6.496 1.8128 8.46 3.4744 1.36 1.133 2.493 2.04 4.23 2.417z"/><path fill="#DCE5F2" d="M290 102.102c-.453-.075-1.058-.151-1.662-.151-2.568 0-3.928.907-5.438 2.115h-7.252c1.738-.377 2.871-1.284 4.23-2.417 1.964-1.6616 4.155-3.4744 8.46-3.4744h.076c.604 1.2841 1.133 2.6434 1.586 3.9274Z"/><path fill="#E5D065" d="M187.726 94.0202c-.076.6798-.302 1.2841-.755 1.7373-.454.4532-1.133.7554-1.889.7554h-9.744c-.151 0-.302 0-.453-.0756-1.057-.151-1.964-.9819-2.19-2.0394-.076-.1511-.076-.3777-.076-.5287 0-1.3597.982-2.4171 2.266-2.6437h10.046c1.511 0 2.871 1.2085 2.795 2.7947Zm0 15.8618c0 .68-.302 1.285-.755 1.738-.453.453-1.133.755-1.888.755h-9.744c-1.284 0-2.417-.831-2.719-2.115-.303-1.662.981-3.172 2.568-3.172h9.668c1.586 0 2.946 1.284 2.87 2.794Z"/><path fill="#26518D" d="M174.885 87.5998v28.7782c0 1.436-1.133 2.569-2.568 2.569h-.076c-1.209 0-2.19-.831-2.493-1.889-.075-.226-.075-.453-.075-.68V87.5998c0-.2266 0-.4532.075-.6798.303-1.0575 1.284-1.8883 2.493-1.8883h.076c1.435 0 2.568 1.133 2.568 2.5681Z"/><path fill="#26518D" d="M172.619 86.92v30.138h-16.315c-5.968 0-10.802-4.834-10.877-10.726v-8.535c0-6.0428 4.909-10.877 10.877-10.877h16.315c0-.0755 0 0 0 0Zm33.991.8309v29.0811c-.151 1.284-1.208 2.266-2.568 2.266h-.075c-1.436 0-2.569-1.133-2.569-2.569V87.7509c0-1.4352 1.133-2.5682 2.569-2.5682h.075c1.058 0 1.964.6043 2.342 1.5107.151.3021.226.6798.226 1.0575Z"/><path fill="#26518D" d="M225.493 97.5703v8.4597c0 6.043-4.909 10.877-10.877 10.877h-8.762V86.6934h8.687c6.043 0 10.952 4.9097 10.952 10.8769Z"/><path fill="#26518d" d="M290.221 102.1738c-.453-.075-1.279-.2228-1.883-.2228-2.568 0-3.928.907-5.438 2.115-5.414 4.9185-11.9858 5.1986-17.524.529-.227-.151-.453-.378-.605-.529-.829-.698-1.666-1.272-2.7134-1.652-.7657-.2778-1.6402-.463-2.7246-.463-2.568 0-3.928.907-5.438 2.115-3.0133 2.4328-6.2819 3.96-9.065 4.004-2.266 0-4.23-.529-5.967-1.587-1.737-1.057-3.852-1.586-6.194-1.586h-7.931v-3.777h7.856c3.021 0 5.816.756 8.158 2.115.679.454 1.435.68 2.19.907.604.151 1.209.151 1.888.151.68 0 1.36-.076 1.889-.151 1.737-.378 2.87-1.284 4.23-2.417 1.964-1.662 4.154-3.4748 8.46-3.4748 4.305 0 6.495 1.8128 8.459 3.4748 1.36 1.133 2.417 2.039 4.23 2.417.529.151 1.133.151 1.889.151.755 0 1.359-.076 1.888-.151 1.737-.378 2.87-1.284 4.23-2.417 3.3005-2.2001 5.3914-3.5053 8.309-3.5503zM146.182 101.8v3.777h-7.855c-2.342 0-4.457.529-6.194 1.586-1.813 1.133-3.701 1.586-5.967 1.586-4.306 0-6.496-1.812-8.46-3.474-.529-.453-1.132-.831-1.661-1.209-.541-.3968-1.1342-.66-1.8081-.8758-.7374-.2361-1.5002-.481-2.566-.481-2.039 0-3.3309.4508-4.4639 1.2818-.0202.0144-.0404.029-.0607.0437-.5088.369-1.0175.8046-1.5253 1.2403-1.964 1.662-4.155 3.474-8.4603 3.474-4.3055 0-6.496-1.812-8.46-3.474-.5286-.453-1.0573-.906-1.5861-1.284-.5287-.378-1.0575-.68-1.7373-.907-.151-1.284-.3018-2.643-.3773-4.0029 2.7948.5287 4.5317 1.964 6.1179 3.248.7554.604 1.4352 1.209 2.1905 1.662.982.604 2.1905.906 3.8523.906 1.6617 0 2.8703-.377 3.8523-.906.755-.453 1.435-1.058 2.19-1.662 1.964-1.662 4.155-3.4746 8.46-3.4746 4.306 0 6.496 1.8125 8.46 3.4745.755.604 1.435 1.209 2.191 1.662.982.604 2.19.906 3.852.906 1.511 0 2.719-.302 3.852-.906.076-.076.151-.076.227-.151 2.341-1.435 5.136-2.115 8.157-2.115h7.78z"/><path fill="#26518D" d="M231.914 99.9119h-10.575v6.0431h10.575v-6.0431Zm-81.954.3781h-10.575v6.042h10.575v-6.042Z"/></svg>