<svg xmlns="http://www.w3.org/2000/svg" fill="none" viewBox="0 0 375 144"><path fill="#dce5f2" d="M288.41 98.17c-4.38 0-6.57 1.82-8.53 3.48-1.36 1.13-2.22 2.43-4.03 2.8l-1.84.82-2.14-1.2c-1.74-.38-2.87-1.29-4.23-2.42-1.96-1.66-4.15-3.48-8.46-3.48-4.3 0-6.5 1.82-8.46 3.48-1.36 1.13-3.1 2.85-5 2.85l-2.95-.28c-.75-.15-1.41-.6-2.1-1.06a15.46 15.46 0 0 0-8.15-2.12h-.68v-1.13h-6.35v-2.34c0-6.04-4.9-10.88-10.87-10.88h-8.24a2.5 2.5 0 0 0-2.34-1.5h-.07a2.55 2.55 0 0 0-2.57 2.56v16.32h-26.44v-7.63c.15 0 .3.07.45.07h9.75c.75 0 1.36-.3 1.89-.75.45-.46.75-1.06.75-1.74.08-1.51-1.28-2.8-2.8-2.8h-10.04v-3.7a2.55 2.55 0 0 0-2.57-2.56h-.07c-1.21 0-2.2.83-2.5 1.88H156.3a10.88 10.88 0 0 0-10.87 10.88v2.5h-6.04v1.5h-1.06a16.19 16.19 0 0 0-8.39 2.27 7.1 7.1 0 0 1-3.85.9 7.83 7.83 0 0 1-3.85-.9c-.76-.45-1.44-1.06-2.2-1.66-1.96-1.66-4.15-3.48-8.45-3.48-4.3 0-6.5 1.82-8.46 3.48-.76.6-1.44 1.2-2.2 1.66-.97.6-2.18.9-3.84.9a7.83 7.83 0 0 1-3.86-.9c-.75-.45-1.43-1.06-2.19-1.66-1.5-1.29-3.25-2.72-6.04-3.25v-1.06a44.23 44.23 0 0 1 52.42-43.5A59.42 59.42 0 0 1 189.32 24c29 0 53.17 20.92 58.23 48.5h.68a44.22 44.22 0 0 1 40.18 25.67z"/><path fill="#dce5f2" d="m93.23 104.07-6-.91c-.07-.3-1.46-.06-1.85-.08a63 63 0 0 1-.38-3.92c2.8.53 4.46 1.96 6.04 3.25.76.6 1.44 1.2 2.2 1.66zm29.08 0h-6.27a6.96 6.96 0 0 0-4.45-1.36c-2.04 0-3.28.23-4.42 1.06l-6.3.3c.75-.46 1.43-1.06 2.18-1.66 1.97-1.67 4.16-3.48 8.46-3.48 4.3 0 6.5 1.81 8.46 3.47.9.6 1.59 1.21 2.34 1.67z"/><path fill="#DCE5F2" d="M187.73 94.02c-.08.68-.3 1.28-.76 1.74-.45.45-1.13.75-1.89.75h-9.74c-.15 0-.3 0-.45-.07v7.63h-44.87c.07-.08.15-.08.22-.15a15.46 15.46 0 0 1 8.16-2.12h.98v-1.51h6.05v-2.5c0-6.04 4.9-10.87 10.87-10.87h13.37a2.6 2.6 0 0 1 2.5-1.89h.07a2.55 2.55 0 0 1 2.57 2.57v3.63h10.05c1.58 0 2.94 1.2 2.87 2.79Zm55.14 10.05h-41.55V87.75a2.55 2.55 0 0 1 2.57-2.57h.08c1.05 0 1.96.6 2.34 1.51h8.23c6.04 0 10.88 4.91 10.88 10.88v2.34h6.42v1.13h.68c3.02 0 5.82.76 8.16 2.12.68.45 1.43.75 2.19.9Z"/><path fill="#dce5f2" d="M271.95 104.07h-7.18c-1.43-1.21-2.94-2.12-5.51-2.12s-3.93.9-5.44 2.12h-7.25c1.74-.38 2.87-1.29 4.23-2.42 1.96-1.66 4.15-3.48 8.46-3.48 4.3 0 6.5 1.82 8.46 3.48 1.36 1.13 2.49 2.04 4.23 2.42z"/><path fill="#DCE5F2" d="M290 102.1c-.45-.07-1.06-.15-1.66-.15-2.57 0-3.93.9-5.44 2.12h-7.25c1.74-.38 2.87-1.29 4.23-2.42 1.96-1.66 4.15-3.48 8.46-3.48h.07c.6 1.29 1.14 2.65 1.59 3.93Z"/><path fill="#E5D065" d="M187.73 94.02c-.08.68-.3 1.28-.76 1.74-.45.45-1.13.75-1.89.75h-9.74c-.15 0-.3 0-.46-.07a2.66 2.66 0 0 1-2.19-2.04c-.07-.15-.07-.38-.07-.53 0-1.36.98-2.42 2.26-2.64h10.05c1.51 0 2.87 1.2 2.8 2.79Zm0 15.86c0 .68-.3 1.29-.76 1.74-.45.45-1.13.76-1.89.76h-9.74a2.75 2.75 0 0 1-2.72-2.12 2.68 2.68 0 0 1 2.57-3.17h9.67c1.58 0 2.94 1.28 2.87 2.8Z"/><path fill="#26518D" d="M174.88 87.6v28.78a2.55 2.55 0 0 1-2.56 2.57h-.08a2.6 2.6 0 0 1-2.5-1.9c-.07-.22-.07-.44-.07-.67V87.6c0-.23 0-.45.08-.68a2.6 2.6 0 0 1 2.5-1.89h.07a2.55 2.55 0 0 1 2.56 2.57Z"/><path fill="#26518D" d="M172.62 86.92v30.14H156.3a10.9 10.9 0 0 1-10.87-10.73V97.8c0-6.05 4.9-10.88 10.87-10.88h16.32c0-.08 0 0 0 0Zm33.99.83v29.08a2.55 2.55 0 0 1-2.57 2.27h-.07a2.55 2.55 0 0 1-2.57-2.57V87.75a2.55 2.55 0 0 1 2.57-2.57h.07c1.06 0 1.97.6 2.34 1.51.16.3.23.68.23 1.06Z"/><path fill="#26518D" d="M225.5 97.57v8.46c0 6.04-4.92 10.88-10.88 10.88h-8.77V86.69h8.7c6.03 0 10.94 4.91 10.94 10.88Z"/><path fill="#26518d" d="M290.22 102.17c-.45-.07-1.28-.22-1.88-.22-2.57 0-3.93.9-5.44 2.12-5.41 4.91-11.99 5.2-17.52.52-.23-.15-.46-.37-.6-.52a7.8 7.8 0 0 0-5.44-2.11c-2.57 0-3.93.9-5.44 2.1-3.02 2.44-6.29 3.97-9.07 4.01-2.27 0-4.23-.53-5.97-1.59a11.81 11.81 0 0 0-6.2-1.58h-7.92v-3.78h7.85c3.03 0 5.82.76 8.16 2.11.68.46 1.44.68 2.2.91.6.15 1.2.15 1.88.15.68 0 1.36-.07 1.89-.15 1.74-.38 2.87-1.28 4.23-2.42 1.96-1.66 4.15-3.47 8.46-3.47 4.3 0 6.5 1.81 8.46 3.47 1.36 1.14 2.41 2.04 4.23 2.42.53.15 1.13.15 1.89.15.75 0 1.36-.07 1.89-.15 1.73-.38 2.87-1.28 4.23-2.42 3.3-2.2 5.39-3.5 8.3-3.55zm-144.04-.37v3.78h-7.85c-2.35 0-4.46.53-6.2 1.58a10.71 10.71 0 0 1-5.96 1.59c-4.31 0-6.5-1.81-8.46-3.48-.53-.45-1.14-.83-1.66-1.2a6.13 6.13 0 0 0-1.81-.88c-.74-.24-1.5-.48-2.57-.48-2.04 0-3.33.45-4.46 1.28l-.06.04c-.51.37-1.02.8-1.53 1.24-1.96 1.67-4.15 3.48-8.46 3.48-4.3 0-6.5-1.81-8.46-3.47-.53-.46-1.06-.91-1.59-1.29a6.32 6.32 0 0 0-1.73-.9c-.15-1.29-.3-2.65-.38-4 2.8.52 4.53 1.96 6.12 3.24.75.6 1.43 1.2 2.19 1.66.98.6 2.19.9 3.85.9 1.66 0 2.87-.37 3.85-.9.76-.45 1.44-1.06 2.2-1.66 1.96-1.66 4.15-3.48 8.45-3.48 4.3 0 6.5 1.82 8.46 3.48.76.6 1.44 1.2 2.2 1.66.98.6 2.18.9 3.85.9 1.5 0 2.72-.3 3.85-.9.07-.07.15-.07.23-.15a15.46 15.46 0 0 1 8.15-2.11h7.78z"/><path fill="#26518D" d="M231.91 99.91h-10.57v6.05h10.57V99.9Zm-81.95.38h-10.58v6.04h10.58v-6.04Z"/></svg>