<svg width="132" height="99" viewBox="0 0 132 99" fill="none" xmlns="http://www.w3.org/2000/svg">
<path d="M65.7456 95.0779C92.3607 95.0779 113.937 89.7022 113.937 83.0709C113.937 76.4397 92.3607 71.064 65.7456 71.064C39.1305 71.064 17.5547 76.4397 17.5547 83.0709C17.5547 89.7022 39.1305 95.0779 65.7456 95.0779Z" fill="#1C3760"/>
<path d="M73.2432 0C41.8403 0 31.7892 14.0172 31.7892 31.3485V78.6702H104.537V31.3485C104.592 14.0172 90.5202 0 73.2432 0Z" fill="#7F95B9"/>
<path d="M73.2432 0C55.9118 0 41.8947 14.0172 41.8947 31.3485V78.6702H104.592V31.3485C104.592 14.0172 90.5202 0 73.2432 0Z" fill="#B3C4DF"/>
<g clip-path="url(#clip0_2322_1405)">
<path d="M59.4104 34.6937L62.2312 37.5145C69.2409 30.5048 80.6088 30.5048 87.6185 37.5145L90.4393 34.6937C81.8782 26.1325 67.9857 26.1325 59.4104 34.6937ZM70.6937 45.9769L74.9249 50.2082L79.1561 45.9769C76.8289 43.6357 73.0349 43.6357 70.6937 45.9769ZM65.052 40.3353L67.8728 43.1561C71.7656 39.2634 78.0842 39.2634 81.9769 43.1561L84.7977 40.3353C79.3535 34.8912 70.5103 34.8912 65.052 40.3353Z" fill="white"/>
</g>
<path d="M97.5831 83.6142C97.3115 84.2118 97.0398 84.8095 96.6595 85.2985C96.2249 85.8961 95.6272 86.4394 94.9209 87.2C100.028 88.1236 102.907 84.4292 106.982 82.7449C105.95 84.4292 105.081 85.8418 103.94 87.6347C108.558 88.8299 111.981 86.6567 115.295 85.3528C118.663 84.0489 121.162 81.0064 123.118 77.7466C123.281 77.9095 123.444 78.0725 123.607 78.1812C122.412 80.5717 121.217 83.0166 120.076 85.2441C121.271 85.3528 122.14 85.4614 123.064 85.5701L123.01 85.5158C122.466 86.3307 122.032 87.2543 121.434 88.015C120.945 88.6126 120.239 89.0472 119.641 89.5362C119.75 89.6992 119.859 89.9165 119.967 90.0795C122.14 89.2646 124.314 88.5039 126.432 87.5803C127.628 87.037 128.606 86.1677 129.801 85.6244C130.344 85.3528 131.105 85.4071 131.811 85.5701C128.714 89.1559 125.998 93.0133 121.271 94.4259C120.673 96.5448 118.392 96.3818 116.979 97.4684C116.436 97.8487 115.729 98.1747 115.077 98.1747C106.711 98.229 98.2894 98.229 89.9226 98.1747C86.1738 98.1747 82.425 97.9031 78.7305 98.0117C72.1023 98.1747 65.474 98.555 58.8457 98.6637C51.1851 98.7724 43.4702 98.7723 35.8097 98.6094C30.9199 98.5007 26.0846 97.9574 21.2492 97.6314C17.8264 97.4141 14.2949 97.4141 10.9264 96.8165C9.13353 96.4905 7.55796 94.9692 5.92805 93.937C5.38475 93.611 4.89578 93.122 4.35248 92.7417C4.24382 92.6874 4.08083 92.633 4.0265 92.5787C2.66824 90.2425 1.30998 87.9063 0.0060596 85.5158C-0.0482706 85.3528 0.277711 84.9725 0.386371 84.7552C2.99422 85.6788 5.00444 88.0693 7.93827 87.7433C8.69889 86.0591 8.26425 84.8095 7.23198 83.6685C6.85167 83.2882 6.58002 82.6906 6.41702 82.1473C5.33042 78.4528 4.18949 74.8127 3.21154 71.1183C2.72257 69.271 2.55958 67.3152 2.2336 65.3593C1.90762 63.1317 1.41865 60.9042 1.25565 58.6767C0.984003 55.7972 1.03833 52.9176 0.984003 50.0925C0.984003 49.6035 1.14699 49.1145 1.36431 48.1366C2.07061 52.0484 2.50525 55.5798 3.42886 58.9483C4.35248 62.3711 5.81939 65.6309 7.12332 68.9451C7.39497 69.6514 7.72095 70.3576 8.04693 71.0639C9.62251 74.1608 11.1981 77.2576 12.7737 80.3544C13.0453 80.2457 13.3713 80.1371 13.6429 80.0284C11.1438 73.8891 9.45952 67.6411 9.40519 60.6325C11.6327 66.0656 13.48 71.2269 15.8162 76.171C18.1523 81.115 20.5972 86.0591 25.3783 89.4819C26.8452 87.2 25.9216 84.8095 25.6499 82.5276C25.2153 79.2135 25.0523 75.9537 26.0302 72.7482C26.6822 76.7686 27.6058 80.6261 29.779 84.0489C30.0507 83.9945 30.3223 83.9402 30.5396 83.8859C30.5396 80.4087 30.5396 76.9316 30.5396 73.4545C30.7026 73.4545 30.92 73.4001 31.0829 73.4001C31.5719 74.5411 32.0066 75.7907 32.6042 76.8773C33.6365 78.7245 35.375 80.3544 35.7553 82.256C36.19 84.8638 38.3632 85.5158 39.7758 87.363C39.9388 86.711 40.2104 86.2764 40.1561 85.8961C39.7758 83.8315 39.3955 81.767 38.8522 79.7024C37.6569 75.2474 36.5703 70.8466 36.7333 66.1742C36.8419 63.512 36.4073 60.7955 36.4616 58.1333C36.516 56.0688 36.9506 53.9499 37.4939 51.8854C38.2545 57.3727 39.7758 62.4798 42.9269 67.2065C43.3616 63.0231 43.7962 58.8396 44.2852 54.6562C44.5025 54.6019 44.7742 54.6019 44.9915 54.5476C46.2411 58.079 47.4363 61.6105 48.5773 64.8703C49.3379 65.0876 49.8812 65.2506 50.6961 65.5223C50.2615 57.8074 50.6418 50.2555 52.9237 42.9752C53.141 42.9752 53.3583 42.9752 53.5756 42.9752C53.63 43.1925 53.793 43.4099 53.793 43.6272C53.793 49.3319 53.4127 55.0909 53.9016 60.7955C54.2819 65.3049 55.6402 69.7057 56.7268 74.1064C57.1614 75.9537 57.9764 77.7466 58.737 79.5395C59.1173 80.4087 59.878 81.115 60.9102 82.419C64.496 75.0844 64.7133 67.6955 65.5283 60.4152C65.6913 60.4152 65.9086 60.3609 66.0716 60.3609C66.9409 67.4781 67.8102 74.5954 68.7338 81.7127C71.0156 76.2796 71.559 70.4663 72.2109 64.7616C73.8951 65.7396 74.8188 67.2608 74.7101 69.4884C74.6558 70.3033 75.6337 71.0639 75.7967 71.9332C76.4487 75.7907 76.992 79.6481 77.5896 83.5056C77.6983 84.2118 77.9699 85.4614 78.2959 85.5158C79.1109 85.6244 80.1431 85.4071 80.7408 84.8638C82.262 83.4512 83.5659 81.767 84.9785 80.2457C85.4132 79.7568 85.9021 79.2678 86.3368 78.7788C86.4998 78.8875 86.6084 78.9418 86.7714 79.0505C86.3368 80.2457 85.7935 81.3867 85.5218 82.6363C85.3045 83.4512 85.1415 84.7008 85.5761 85.1898C86.3368 86.0591 87.4777 85.8961 88.4557 84.9181C90.3572 83.0166 92.3674 81.278 94.595 79.1591C93.3997 81.3324 92.3131 83.2882 91.2265 85.2985C91.4438 85.5158 91.6068 85.7874 91.8241 86.0047C92.9107 85.4614 93.943 84.8638 95.0296 84.3748C95.7359 83.9945 96.6595 83.8315 97.5831 83.6142C97.5831 83.5599 97.5288 83.5599 97.5831 83.6142Z" fill="#E5D065"/>
<defs>
<clipPath id="clip0_2322_1405">
<rect width="33.8497" height="33.8497" fill="white" transform="translate(58 22)"/>
</clipPath>
</defs>
</svg>
