<svg xmlns="http://www.w3.org/2000/svg" fill="none" viewBox="0 0 132 99"><path fill="#1C3760" d="M65.746 95.078c26.615 0 48.191-5.376 48.191-12.007 0-6.631-21.576-12.007-48.191-12.007-26.615 0-48.191 5.376-48.191 12.007 0 6.631 21.575 12.007 48.19 12.007Z"/><path fill="#7F95B9" d="M73.243 0C41.84 0 31.79 14.017 31.79 31.349V78.67h72.748V31.348C104.592 14.019 90.52 0 73.243 0Z"/><path fill="#B3C4DF" d="M73.243 0C55.912 0 41.895 14.017 41.895 31.349V78.67h62.697V31.348C104.592 14.019 90.52 0 73.243 0Z"/><g clip-path="url(#a)"><path fill="#fff" d="m59.41 34.694 2.821 2.82c7.01-7.01 18.378-7.01 25.387 0l2.821-2.82c-8.56-8.562-22.453-8.562-31.029 0Zm11.284 11.283 4.23 4.231 4.232-4.231c-2.327-2.341-6.121-2.341-8.462 0Zm-5.642-5.642 2.82 2.821c3.894-3.893 10.212-3.893 14.105 0l2.82-2.82c-5.444-5.445-14.287-5.445-19.745 0Z"/></g><path fill="#E5D065" d="M97.583 83.614c-.272.598-.543 1.195-.924 1.684-.434.598-1.032 1.141-1.738 1.902 5.107.924 7.986-2.77 12.061-4.455a314.068 314.068 0 0 1-3.042 4.89c4.618 1.195 8.041-.978 11.355-2.282 3.368-1.304 5.867-4.347 7.823-7.606.163.162.326.326.489.434-1.195 2.39-2.39 4.836-3.531 7.063 1.195.109 2.064.217 2.988.326l-.054-.054c-.544.815-.978 1.738-1.576 2.499-.489.598-1.195 1.032-1.793 1.521.109.163.218.38.326.543 2.173-.814 4.347-1.575 6.465-2.499 1.196-.543 2.174-1.412 3.369-1.956.543-.271 1.304-.217 2.01-.054-3.097 3.586-5.813 7.443-10.54 8.856-.598 2.119-2.879 1.956-4.292 3.042-.543.38-1.25.707-1.902.707-8.366.054-16.788.054-25.154 0-3.75 0-7.498-.272-11.192-.163-6.629.163-13.257.543-19.885.652-7.66.108-15.376.108-23.036-.055-4.89-.108-9.725-.652-14.56-.978-3.424-.217-6.955-.217-10.324-.814-1.792-.326-3.368-1.848-4.998-2.88-.543-.326-1.032-.815-1.576-1.195-.108-.055-.271-.109-.325-.163-1.359-2.336-2.717-4.673-4.02-7.063-.055-.163.27-.544.38-.76 2.607.923 4.617 3.313 7.551 2.987.76-1.684.326-2.933-.706-4.075-.38-.38-.652-.977-.815-1.52-1.087-3.695-2.228-7.335-3.205-11.03-.49-1.847-.652-3.803-.978-5.759-.326-2.227-.815-4.455-.978-6.682-.272-2.88-.218-5.76-.272-8.584 0-.49.163-.979.38-1.956.707 3.911 1.141 7.443 2.065 10.811.923 3.423 2.39 6.683 3.694 9.997.272.706.598 1.413.924 2.119l4.727 9.29c.271-.108.597-.217.869-.326-2.5-6.139-4.183-12.387-4.238-19.396 2.228 5.434 4.075 10.595 6.411 15.539 2.336 4.944 4.781 9.888 9.562 13.31 1.467-2.281.544-4.671.272-6.953-.435-3.315-.598-6.574.38-9.78.652 4.02 1.576 7.878 3.749 11.3.272-.053.543-.108.76-.162V73.455c.164 0 .381-.055.544-.055.489 1.141.924 2.39 1.521 3.477 1.032 1.848 2.771 3.477 3.151 5.379.435 2.608 2.608 3.26 4.02 5.107.164-.652.435-1.087.381-1.467-.38-2.064-.76-4.129-1.304-6.194-1.195-4.455-2.282-8.855-2.119-13.528.109-2.662-.326-5.379-.271-8.04.054-2.065.489-4.184 1.032-6.249.76 5.488 2.282 10.595 5.433 15.322.435-4.184.87-8.367 1.358-12.55.218-.055.49-.055.707-.11 1.25 3.532 2.444 7.064 3.585 10.323.76.218 1.304.38 2.12.652-.436-7.715-.055-15.267 2.227-22.547h.652c.054.218.217.435.217.652 0 5.705-.38 11.464.109 17.168.38 4.51 1.738 8.91 2.825 13.311.434 1.848 1.25 3.64 2.01 5.434.38.869 1.141 1.575 2.173 2.879 3.586-7.335 3.803-14.724 4.618-22.004.163 0 .38-.054.544-.054.869 7.117 1.738 14.234 2.662 21.352 2.282-5.433 2.825-11.247 3.477-16.951 1.684.978 2.608 2.499 2.5 4.726-.055.815.923 1.576 1.086 2.445.652 3.858 1.195 7.715 1.793 11.573.108.706.38 1.955.706 2.01.815.108 1.847-.109 2.445-.652 1.521-1.413 2.825-3.097 4.237-4.618.435-.49.924-.978 1.359-1.467.163.109.271.163.434.272-.434 1.195-.978 2.336-1.25 3.585-.216.815-.38 2.065.055 2.554.76.87 1.902.706 2.88-.272 1.901-1.901 3.911-3.64 6.139-5.759-1.195 2.173-2.282 4.13-3.368 6.14.217.217.38.488.597.706 1.087-.544 2.119-1.141 3.206-1.63.706-.38 1.63-.543 2.553-.76 0-.055-.054-.055 0 0Z"/><defs><clipPath id="a"><path fill="#fff" d="M58 22h33.85v33.85H58z"/></clipPath></defs></svg>