<svg xmlns="http://www.w3.org/2000/svg" fill="none" viewBox="0 0 149 99"><path fill="#E5D065" d="M115.03 98.53H24.4l33.9-78h29.56l27.19 78Z"/><path fill="#B3C4DF" d="M119.93 46.4 35.64 32.2A42.8 42.8 0 0 1 84.28.61a42.9 42.9 0 0 1 35.65 45.78Z"/><path fill="#7F95B9" d="m33.06 37.52 83.58 17.82c-3.35 6.92-22.57 8.8-44.59 4.12-22.01-4.68-38.78-14.33-39-21.94Z"/><path fill="#26518D" d="M149 61.63 0 36.53c6.08-16.56 40.46-24.52 79.67-17.95C118.87 25.15 148.72 44 149 61.63Z"/><path fill="#fff" d="M80.37 41.22a6.99 6.99 0 1 0 0-13.98 6.99 6.99 0 0 0 0 13.98ZM107.98 46.81a5.24 5.24 0 1 0 0-10.48 5.24 5.24 0 0 0 0 10.48ZM51.37 36.33a5.24 5.24 0 1 0 0-10.49 5.24 5.24 0 0 0 0 10.49ZM24.46 34.93a4.2 4.2 0 1 0 0-8.39 4.2 4.2 0 0 0 0 8.39ZM131.39 53.8a4.2 4.2 0 1 0 0-8.39 4.2 4.2 0 0 0 0 8.39Z"/><g clip-path="url(#a)"><path fill="#fff" d="m54.41 75.7 2.82 2.81a17.95 17.95 0 0 1 25.39 0l2.82-2.82a21.95 21.95 0 0 0-31.03 0Zm11.28 11.28 4.23 4.23 4.24-4.23a5.98 5.98 0 0 0-8.47 0Zm-5.64-5.64 2.82 2.82a9.98 9.98 0 0 1 14.1 0l2.83-2.82a13.98 13.98 0 0 0-19.75 0Z"/></g><defs><clipPath id="a"><path fill="#fff" d="M53 63h33.85v33.85H53z"/></clipPath></defs></svg>