<svg xmlns="http://www.w3.org/2000/svg" fill="none" viewBox="0 0 171 112"><path fill="#26518D" d="M170.2 96.285c-.914 1.906-2.439 2.592-4.497 2.516-3.43-.153-6.859 0-10.289 0h-1.372c-.229-5.717-2.439-10.443-6.86-14.025-3.278-2.668-7.089-3.887-11.357-3.811-9.451.153-17.302 7.622-17.683 17.76h-65.93c-.306-6.86-3.507-12.12-9.833-15.854h73.4V40.492c0-3.354 1.524-3.887 5.488-4.116a198.656 198.656 0 0 1 19.055 0c3.278.153 5.564.762 7.165 3.278 6.86 11.356 13.796 22.637 20.579 33.994.915 1.6 1.372 3.506 2.058 5.183v17.454h.076ZM.152 85.386c.839-1.982 2.287-2.668 4.421-2.668 6.708.076 13.415 0 20.046 0h1.143c-2.744 1.83-5.03 3.963-6.783 6.784-1.677 2.82-2.515 5.792-2.592 9.146h-6.174c-1.905 0-3.81-.076-5.716 0-2.058.153-3.582-.533-4.497-2.515.152-3.43.152-7.089.152-10.747Z"/><path fill="#7F95B9" d="M34.375 85.996c7.013 0 12.73 5.716 12.73 12.805 0 7.088-5.717 12.728-12.73 12.728-7.012 0-12.729-5.716-12.729-12.805 0-7.012 5.64-12.728 12.73-12.728Zm101.907 0c7.164.076 12.729 5.869 12.652 13.033-.076 7.089-5.945 12.653-13.11 12.5-6.936-.152-12.576-6.021-12.424-12.957.153-7.089 5.946-12.653 12.882-12.576Z"/><path fill="#E5D065" d="M26.677 73.038h64.711c6.631 0 10.747-7.165 7.47-12.881L66.464 4.287c-3.277-5.716-11.585-5.716-14.863 0l-32.317 55.87c-3.354 5.716.762 12.881 7.393 12.881Zm32.394-30.03a4.261 4.261 0 0 1-4.269-4.269v-8.613a4.261 4.261 0 0 1 4.269-4.268 4.261 4.261 0 0 1 4.268 4.268v8.613a4.261 4.261 0 0 1-4.268 4.268Zm4.268 17.149h-8.613V51.62h8.613v8.537Z"/></svg>