<svg xmlns="http://www.w3.org/2000/svg" fill="none" viewBox="0 0 171 112"><path fill="#26518D" d="M170.2 96.28c-.91 1.91-2.44 2.6-4.5 2.52-3.43-.15-6.86 0-10.29 0h-1.37c-.23-5.72-2.44-10.44-6.86-14.02a16.95 16.95 0 0 0-11.36-3.82c-9.45.16-17.3 7.63-17.68 17.77H52.21c-.3-6.86-3.5-12.12-9.83-15.86h73.4V40.5c0-3.35 1.52-3.89 5.49-4.11a198.66 198.66 0 0 1 19.05 0c3.28.15 5.57.76 7.17 3.27 6.86 11.36 13.8 22.64 20.58 34 .91 1.6 1.37 3.5 2.05 5.18v17.45h.08ZM.15 85.38c.84-1.98 2.29-2.66 4.42-2.66 6.71.07 13.42 0 20.05 0h1.14a22.15 22.15 0 0 0-6.78 6.78 18.2 18.2 0 0 0-2.6 9.15h-6.17c-1.9 0-3.8-.08-5.71 0C2.44 98.8.9 98.1 0 96.13c.15-3.43.15-7.09.15-10.74Z"/><path fill="#7F95B9" d="M34.38 86a12.77 12.77 0 0 1 0 25.53 12.77 12.77 0 0 1-12.73-12.8A12.7 12.7 0 0 1 34.38 86Zm101.9 0a12.75 12.75 0 0 1 12.65 13.03 12.7 12.7 0 0 1-13.1 12.5 12.79 12.79 0 0 1-12.43-12.96A12.8 12.8 0 0 1 136.28 86Z"/><path fill="#E5D065" d="M26.68 73.04h64.7a8.6 8.6 0 0 0 7.48-12.88L66.46 4.29a8.58 8.58 0 0 0-14.86 0L19.28 60.16a8.55 8.55 0 0 0 7.4 12.88ZM59.08 43a4.26 4.26 0 0 1-4.28-4.27v-8.61a4.26 4.26 0 0 1 4.27-4.27 4.26 4.26 0 0 1 4.27 4.27v8.6a4.26 4.26 0 0 1-4.27 4.28Zm4.26 17.15h-8.61v-8.54h8.6v8.54Z"/></svg>