<svg xmlns="http://www.w3.org/2000/svg" fill="none" viewBox="0 0 128 113"><path fill="#E0E3E9" d="M128 112.1H0V32.43h128v79.69ZM2.98 109.14h122.04V35.4H2.98v73.73Z"/><path fill="#fff" d="M126.51 33.91H1.5v76.71H126.5V33.91Z"/><path fill="#EDEFF4" d="M126.51 53.35v-4.7h-17.34V33.9h-4.71v14.73H73.58V33.91h-4.7v14.73H21.24V33.91h-4.71v14.73H1.49v4.71h15.05v18.32H1.49v4.7h15.05V96H1.49v4.71h40.43v9.91h4.7v-9.9h22.25v9.9h4.71v-9.9h52.93V96H73.58V76.38h52.93v-4.71h-17.34V53.35h17.34Zm-57.64 0v5.76H21.25v-5.76h47.62ZM21.25 63.82h47.62v7.85H21.25v-7.85Zm0 32.18V76.38h20.67V96H21.25Zm47.62 0H46.63V76.38h22.24V96Zm35.59-24.33H73.58V53.35h30.88v18.32Z"/><path fill="#0073E6" d="M93.95 22.58c0 12.48-22.59 40.26-22.59 40.26S48.78 35.06 48.78 22.58a22.58 22.58 0 1 1 45.17 0Z"/><path fill="#fff" d="M81.69 21.6a10.32 10.32 0 1 1-20.65 0 10.32 10.32 0 0 1 20.65 0Z"/><path fill="#0073E6" d="M71.36 79.14a6.09 6.09 0 1 0 0-12.17 6.09 6.09 0 0 0 0 12.17Z"/></svg>