<svg xmlns="http://www.w3.org/2000/svg" fill="none" viewBox="0 0 104 112"><path fill="#E6E6E6" d="M103.66 111.93H.3c-.04 0-.07-.06-.1-.16a1.8 1.8 0 0 1 0-.72c.03-.1.06-.15.1-.15h103.36c.04 0 .07.05.1.15a1.88 1.88 0 0 1 0 .73c-.03.1-.06.15-.1.15ZM75.84 94.22a58.58 58.58 0 0 1-2.71 16.13l-.12.36H62.88l.03-.36c.68-7.8 4.57-55.25-.08-63.37.4.66 13.8 22.46 13.01 47.24Z"/><path fill="#E6E6E6" d="m75.09 110.35-.27.36h-7.6l.2-.36a385.4 385.4 0 0 0 8.43-16.13c3.7-7.58 7.1-15.44 6.82-18.3.08.65 2.65 20.22-7.58 34.43Zm-54.91-7.12c.07 2.7.52 5.36 1.33 7.92l.06.18h4.97l-.02-.18c-.33-3.82-2.24-27.12.05-31.1-.2.31-6.78 11.02-6.4 23.19Z"/><path fill="#E6E6E6" d="m20.55 111.16.13.17h3.73l-.1-.17a195.4 195.4 0 0 1-4.14-7.92c-1.82-3.73-3.49-7.59-3.34-8.99-.05.32-1.3 9.93 3.72 16.9Z"/><path fill="#fff" d="M5.3 46.48V5.75A1.74 1.74 0 0 1 7.04 4h32.4a1.76 1.76 0 0 1 1.76 1.75v40.73a1.74 1.74 0 0 1-1.76 1.75H7.05a1.76 1.76 0 0 1-1.76-1.75Zm1.75-42.1a1.37 1.37 0 0 0-1.37 1.37v40.73a1.36 1.36 0 0 0 1.37 1.36h32.4a1.37 1.37 0 0 0 1.37-1.36V5.75a1.36 1.36 0 0 0-1.37-1.36H7.05Z"/><rect width="34" height="47" x="6" fill="#fff" rx="2"/><path fill="#007ABA" d="M24.8 22.66v-8.51c0-.24.09-.47.26-.63a.9.9 0 0 1 .64-.26h7.41c.25 0 .48.1.65.26.17.16.27.39.27.63v8.5c0 .24-.1.47-.27.63a.93.93 0 0 1-.65.26h-7.4a.93.93 0 0 1-.65-.26.88.88 0 0 1-.27-.62Z"/><path fill="#CCC" d="M11.45 26.77v-8.51c0-.24.1-.46.27-.63.17-.16.4-.26.65-.26h7.4a.9.9 0 0 1 .92.89v8.51c0 .24-.1.46-.27.63a.93.93 0 0 1-.64.26h-7.41a.93.93 0 0 1-.65-.26.88.88 0 0 1-.27-.63Z"/><path fill="#E1F5FD" d="M22.74 39.11v-8.5c0-.24.08-.47.24-.64a.78.78 0 0 1 .57-.26h6.59c.21 0 .42.1.57.26.15.17.24.4.24.63v8.51c0 .24-.09.46-.24.63a.78.78 0 0 1-.57.26h-6.6a.78.78 0 0 1-.56-.26.93.93 0 0 1-.24-.63Z"/><path fill="#F2F2F2" d="M76.6 8.11a1.54 1.54 0 1 0 0-3.08 1.54 1.54 0 0 0 0 3.08Zm0 6.18a1.54 1.54 0 1 0 0-3.09 1.54 1.54 0 0 0 0 3.09Zm0 6.17a1.54 1.54 0 1 0 0-3.08 1.54 1.54 0 0 0 0 3.08Zm0 6.17a1.54 1.54 0 1 0 0-3.08 1.54 1.54 0 0 0 0 3.08ZM70.45 8.11a1.54 1.54 0 1 0 0-3.08 1.54 1.54 0 0 0 0 3.08Zm0 6.18a1.54 1.54 0 1 0 0-3.09 1.54 1.54 0 0 0 0 3.09Zm0 6.17a1.54 1.54 0 1 0 0-3.08 1.54 1.54 0 0 0 0 3.08Zm0 6.17a1.54 1.54 0 1 0 0-3.08 1.54 1.54 0 0 0 0 3.08ZM64.3 8.11a1.54 1.54 0 1 0 0-3.08 1.54 1.54 0 0 0 0 3.08Zm0 6.18a1.54 1.54 0 1 0 0-3.09 1.54 1.54 0 0 0 0 3.09Zm0 6.17a1.54 1.54 0 1 0 0-3.08 1.54 1.54 0 0 0 0 3.08Zm0 6.17a1.54 1.54 0 1 0 0-3.08 1.54 1.54 0 0 0 0 3.08ZM58.14 8.11a1.54 1.54 0 1 0 0-3.08 1.54 1.54 0 0 0 0 3.08Zm0 6.18a1.54 1.54 0 1 0 0-3.09 1.54 1.54 0 0 0 0 3.09Zm0 6.17a1.54 1.54 0 1 0 0-3.08 1.54 1.54 0 0 0 0 3.08Zm0 6.17a1.54 1.54 0 1 0 0-3.08 1.54 1.54 0 0 0 0 3.08ZM51.98 8.11a1.54 1.54 0 1 0 0-3.08 1.54 1.54 0 0 0 0 3.08Zm0 6.18a1.54 1.54 0 1 0 0-3.09 1.54 1.54 0 0 0 0 3.09Zm0 6.17a1.54 1.54 0 1 0 0-3.08 1.54 1.54 0 0 0 0 3.08Zm0 6.17a1.54 1.54 0 1 0 0-3.08 1.54 1.54 0 0 0 0 3.08ZM45.31 8.11c.57 0 1.03-.69 1.03-1.54 0-.85-.46-1.54-1.03-1.54-.57 0-1.02.69-1.02 1.54 0 .85.45 1.54 1.02 1.54Zm0 6.18c.57 0 1.03-.7 1.03-1.55 0-.85-.46-1.54-1.03-1.54-.57 0-1.02.7-1.02 1.54 0 .85.45 1.55 1.02 1.55Zm0 6.17c.57 0 1.03-.7 1.03-1.55 0-.85-.46-1.54-1.03-1.54-.57 0-1.02.7-1.02 1.54 0 .86.45 1.55 1.02 1.55Zm0 6.17c.57 0 1.03-.7 1.03-1.54 0-.86-.46-1.55-1.03-1.55-.57 0-1.02.7-1.02 1.55 0 .85.45 1.54 1.02 1.54Z"/><path fill="#FFB8B8" d="M51.62 59.97a2.39 2.39 0 0 1 .15-2.02 2.5 2.5 0 0 1 1.67-1.23c.11-.03.22-.05.34-.06l5.68-9.58-1.44-2.37 3.57-2.65 2.73 3.65a2.44 2.44 0 0 1-.06 3l-7.8 9.6a2.26 2.26 0 0 1 .1 1.27 2.43 2.43 0 0 1-1.2 1.66 2.64 2.64 0 0 1-2.8-.09 2.5 2.5 0 0 1-.94-1.18Zm-11.44 48.94H37.4l-1.32-10.28h4.1v10.28Z"/><path fill="#2F2E41" d="M35.54 108.91h5.67V112h-9.24a2.9 2.9 0 0 1 1.05-2.18 3.94 3.94 0 0 1 2.52-.91Z"/><path fill="#FFB8B8" d="M63.78 108.91H61l-1.32-10.28h4.1v10.28Z"/><path fill="#2F2E41" d="M59.14 108.91h5.67V112h-9.24c0-.4.1-.8.28-1.18a3.43 3.43 0 0 1 1.93-1.67c.43-.16.9-.24 1.36-.24Z"/><path fill="#007ABA" d="m61.73 42.58-6.47 2.56-1.59-4.57c-.2-.6-.2-1.27.01-1.87a2.7 2.7 0 0 1 1.17-1.43 2.54 2.54 0 0 1 3.36.68l3.52 4.63ZM40.4 100.66l-5.46-1.24a1.18 1.18 0 0 1-.9-1.33c2.19-13.8 4.3-21.9 9.72-32.17.08-.19.93-4.08 1.48-6.65a1.17 1.17 0 0 1 1-1.18l10.17-1.56c.16-.05.32-.08.48-.07l.1.02v.1c0 .1-.1.12-.14.12l-.14.02c.16.07.3.17.42.29 4.46 5.33 6.78 22.82 9.72 42.15a1.05 1.05 0 0 1-.3.86 1.17 1.17 0 0 1-.84.37l-6.5.16a1.18 1.18 0 0 1-1.2-1l-4.37-25.17a.93.93 0 0 0-.79-.79.94.94 0 0 0-.98.51c-3.54 7.16-6.83 13.36-10.07 25.7a1.17 1.17 0 0 1-1.4.86Z"/><path fill="#2EB9F2" d="M46.15 59.33a1.15 1.15 0 0 1-.48-.81c-.81-7.56-.25-13.48 1.72-18.1a5.74 5.74 0 0 1 3.8-3.25l5.12-.26.02.02a5.97 5.97 0 0 1 3.27 6.33c-1.65 4.34-3.02 8.85-1.97 12.49A1.18 1.18 0 0 1 57.2 57c-.12.1-.26.16-.4.2l-9.74 2.31a1.14 1.14 0 0 1-.92-.18Z"/><path fill="#FFB8B8" d="m43.47 48.72-10.1-7.85a2.5 2.5 0 0 1-1.34.1 2.63 2.63 0 0 1-1.74-1.2 2.52 2.52 0 0 1 .02-2.67 2.6 2.6 0 0 1 3.46-.9 2.6 2.6 0 0 1 1.34 2l10.06 5.71 2.5-1.42 2.77 3.57-3.88 2.73a2.62 2.62 0 0 1-3.1-.07Z"/><path fill="#007ABA" d="m51.85 47.2-5.51-4.09 2.59-4c.34-.53.85-.91 1.42-1.08.58-.16 1.2-.1 1.73.18.54.28.98.77 1.22 1.37a3 3 0 0 1 .11 1.91l-1.56 5.71Z"/><path fill="#FFB8B8" d="M54.03 34.86a5.65 5.65 0 1 0-.01-11.3 5.65 5.65 0 0 0 .01 11.3Z"/><path fill="#1C3760" d="M52.33 28.49c-1.47 1-3.41 2.02-4.92.96-1-.7-1.3-2-.9-3.13.72-2.04 2.7-2.93 4.6-3.62 2.47-.9 5.16-1.6 7.7-.97 2.55.64 4.8 3.08 4.34 5.63-.37 2.06-2.33 3.77-2.05 5.83.28 2.09 2.65 3.18 4.74 3.55 2.1.38 4.44.5 5.94 1.98 1.92 1.9 1.44 5.28-.36 7.28-1.8 2-4.53 2.9-7.17 3.52-3.5.82-7.29 1.25-10.61-.1-3.32-1.36-5.91-5.01-4.95-8.43.4-1.44 1.37-2.67 2.3-3.85.92-1.2 1.86-2.44 2.2-3.9a4 4 0 0 0-.73-3.53 1.02 1.02 0 0 1-.14-1.2l.01-.02Z"/></svg>