<svg xmlns="http://www.w3.org/2000/svg" fill="none" viewBox="0 0 375 144"><path fill="#26518D" d="M249.59 131.71H125.35a6.34 6.34 0 0 1-6.35-6.35v-21.6c0-3.48 2.8-6.28 6.35-6.28h124.3a6.33 6.33 0 0 1 6.35 6.35v21.6a6.42 6.42 0 0 1-6.41 6.28Z"/><path fill="#26518D" d="m139.71 71.05-6.58 1.88 9.37 32.92 6.58-1.87-9.37-32.93Zm39.48 32.88 6.58 1.87 9.37-32.93-6.58-1.87-9.37 32.93Z"/><path fill="#D0D8E2" d="M138.6 119.89a5.3 5.3 0 1 0 0-10.59 5.3 5.3 0 0 0 0 10.59Zm19.3 0a5.3 5.3 0 1 0 0-10.59 5.3 5.3 0 0 0 0 10.59Zm73.14-13.7h-2.49V123h2.49v-16.8Zm6.54 0h-2.5V123h2.5v-16.8Zm6.53 0h-2.49V123h2.5v-16.8Z"/><circle cx="189.5" cy="48.5" r="5.5" fill="#E5D065"/><circle cx="170.5" cy="48.5" r="5.5" fill="#E5D065"/><circle cx="151.5" cy="48.5" r="5.5" fill="#E5D065"/><circle cx="132.5" cy="48.5" r="5.5" fill="#E5D065"/><path fill="#E5D065" d="M230 72a26 26 0 1 0 0-52 26 26 0 0 0 0 52Z"/><g clip-path="url(#a)"><path fill="#fff" d="m214.53 41.83 2.82 2.82a17.95 17.95 0 0 1 25.4 0l2.81-2.82a21.95 21.95 0 0 0-31.03 0Zm11.29 11.28 4.23 4.23 4.23-4.23a5.98 5.98 0 0 0-8.46 0Zm-5.64-5.64 2.82 2.82a9.98 9.98 0 0 1 14.1 0l2.82-2.82a13.98 13.98 0 0 0-19.74 0Z"/></g><defs><clipPath id="a"><path fill="#fff" d="M213.12 29.13h33.85v33.85h-33.85z"/></clipPath></defs></svg>