<svg xmlns="http://www.w3.org/2000/svg" fill="none" viewBox="0 0 375 144"><path fill="#26518D" d="M249.589 131.713h-124.24a6.336 6.336 0 0 1-6.349-6.349v-21.599c0-3.486 2.801-6.287 6.349-6.287h124.302a6.335 6.335 0 0 1 6.349 6.349v21.599c-.062 3.423-2.863 6.287-6.411 6.287Z"/><path fill="#26518D" d="m139.711 71.052-6.585 1.874 9.37 32.927 6.585-1.874-9.37-32.927Zm39.476 32.875 6.585 1.874 9.37-32.927L188.557 71l-9.37 32.927Z"/><path fill="#D0D8E2" d="M138.607 119.886a5.291 5.291 0 1 0 0-10.582 5.291 5.291 0 0 0 0 10.582Zm19.296 0a5.291 5.291 0 1 0 0-10.582 5.291 5.291 0 0 0 0 10.582Zm73.137-13.694h-2.49v16.806h2.49v-16.806Zm6.536 0h-2.49v16.806h2.49v-16.806Zm6.535 0h-2.49v16.806h2.49v-16.806Z"/><circle cx="189.5" cy="48.5" r="5.5" fill="#E5D065"/><circle cx="170.5" cy="48.5" r="5.5" fill="#E5D065"/><circle cx="151.5" cy="48.5" r="5.5" fill="#E5D065"/><circle cx="132.5" cy="48.5" r="5.5" fill="#E5D065"/><path fill="#E5D065" d="M230 72c14.359 0 26-11.64 26-26s-11.641-26-26-26-26 11.64-26 26 11.641 26 26 26Z"/><g clip-path="url(#a)"><path fill="#fff" d="m214.534 41.825 2.821 2.82c7.01-7.01 18.378-7.01 25.387 0l2.821-2.82c-8.561-8.561-22.454-8.561-31.029 0Zm11.283 11.283 4.232 4.231 4.231-4.23c-2.327-2.342-6.121-2.342-8.463 0Zm-5.641-5.641 2.821 2.82c3.892-3.892 10.211-3.892 14.104 0l2.82-2.82c-5.444-5.445-14.287-5.445-19.745 0Z"/></g><defs><clipPath id="a"><path fill="#fff" d="M0 0h33.85v33.85H0z" transform="translate(213.124 29.131)"/></clipPath></defs></svg>