<svg xmlns="http://www.w3.org/2000/svg" fill="none" viewBox="0 0 197 184"><g clip-path="url(#a)"><path fill="#F2F2F2" d="m181.68 140.58 8.8 1.38a28.72 28.72 0 0 0 5.97-12.46c-6.43 5.27-16.2 2.47-24 5.34a17.29 17.29 0 0 0-10.33 10.84l-4.3 4.62a28.94 28.94 0 0 0 24.2-1.33 27.96 27.96 0 0 0 5.7-4.1c-3.08-1.93-6.04-4.29-6.04-4.29Z"/><path fill="#F2F2F2" d="m178.56 126.52 8.48-2.69c1.06-4.55.99-9.3-.2-13.81-3.4 7.57-13.4 9.43-19.1 15.48a17.27 17.27 0 0 0-4.42 14.3l-1.78 6.06a28.93 28.93 0 0 0 21.06-11.99c1.34-1.92 2.45-4 3.27-6.2-3.62-.36-7.3-1.15-7.3-1.15Z"/><path fill="#CCC" d="M196.5 153.1a.35.35 0 0 1-.1.24.34.34 0 0 1-.25.1H.85a.35.35 0 0 1 0-.7h195.3a.35.35 0 0 1 .25.11.34.34 0 0 1 .1.25Z"/><path fill="#E6E6E6" d="M81.43 138.38a62.37 62.37 0 1 0 0-124.73 62.37 62.37 0 0 0 0 124.73Z"/><path fill="#fff" d="M135.1 76.01a53.6 53.6 0 0 1-23.03 44.07A53.67 53.67 0 1 1 135.1 76Z"/><path fill="#7EBEFF" d="M81.43 125.04a49.02 49.02 0 1 0 0-98.05 49.02 49.02 0 0 0 0 98.05Z"/><path fill="#000" d="M81.56 27.13c-.74 0-1.48.02-2.22.05a49.02 49.02 0 0 1-2.07 97.8 49.03 49.03 0 1 0 4.3-97.86Z" opacity=".2"/><path fill="#fff" d="M81.58 23.5a1.6 1.6 0 0 0-1.6 1.6v6.97a1.6 1.6 0 1 0 3.2 0V25.1a1.6 1.6 0 0 0-1.6-1.6ZM113.44 32.93l-1.37-.98a1.59 1.59 0 0 0-1.42.7l-3.92 5.75a1.6 1.6 0 1 0 2.63 1.8l3.92-5.76a1.59 1.59 0 0 0 .16-1.5ZM131.24 59.16a1.6 1.6 0 0 0-2.07-.87l-6.46 2.62a1.6 1.6 0 0 0 1.2 2.95l6.46-2.62a1.6 1.6 0 0 0 .87-2.08ZM56.14 38.4l-3.92-5.76a1.6 1.6 0 0 0-1.42-.69l-1.37.98a1.58 1.58 0 0 0 .15 1.51l3.92 5.75a1.6 1.6 0 0 0 2.64-1.8ZM40.15 60.9 33.7 58.3a1.6 1.6 0 0 0-1.2 2.95l6.45 2.62a1.6 1.6 0 0 0 1.2-2.95ZM81.58 118.37a1.6 1.6 0 0 0-1.6 1.6v6.95a1.6 1.6 0 1 0 3.2 0v-6.96a1.6 1.6 0 0 0-1.6-1.6ZM113.28 117.59l-3.92-5.75a1.6 1.6 0 1 0-2.63 1.8l3.92 5.75a1.6 1.6 0 0 0 1.42.69c.46-.32.92-.65 1.37-.99a1.58 1.58 0 0 0-.16-1.5ZM130.37 90.79l-6.45-2.62a1.6 1.6 0 0 0-1.2 2.95l6.45 2.62a1.6 1.6 0 0 0 1.2-2.95ZM55.72 111.42a1.6 1.6 0 0 0-2.22.42l-3.92 5.75a1.58 1.58 0 0 0-.15 1.5c.45.34.9.67 1.37.99a1.6 1.6 0 0 0 1.42-.7l3.92-5.75a1.6 1.6 0 0 0-.42-2.21ZM41.03 89.04a1.6 1.6 0 0 0-2.08-.87l-6.45 2.62a1.6 1.6 0 0 0 1.2 2.95l6.45-2.62a1.6 1.6 0 0 0 .88-2.08Z"/><path fill="#3F3D56" d="M83.65 75.22a3.34 3.34 0 0 1-2.73 3.85L52.6 83.9a3.34 3.34 0 1 1-1.12-6.58l28.3-4.82a3.34 3.34 0 0 1 3.86 2.73Z"/><path fill="#3F3D56" d="M113.44 106.59a2.18 2.18 0 0 1-3.07.01L79.89 76.36a2.18 2.18 0 0 1 3.07-3.09l30.47 30.24a2.17 2.17 0 0 1 .01 3.08Z"/><path fill="#CCC" d="M81.43 79.79a3.77 3.77 0 1 0 0-7.55 3.77 3.77 0 0 0 0 7.55Z"/><path fill="#E6E6E6" d="M55.46 10.62c-5.8 9.1-14.62 15.14-25.52 19.11a2.05 2.05 0 0 1-2.86-.41c-5.92-7.9-4.58-19.19 3.23-25.23a18 18 0 0 1 25.4 3.45l.16.22a2.05 2.05 0 0 1-.41 2.86ZM107.16 7.54a18.01 18.01 0 0 1 25.4-3.45c7.8 6.04 9.14 17.33 3.23 25.23a2.05 2.05 0 0 1-2.87.41c-10.11-3.87-18.4-10.57-25.51-19.1a2.05 2.05 0 0 1-.41-2.87l.16-.22ZM104.62 130.05a1.6 1.6 0 0 0-.61 2.17l9.2 16.45a1.6 1.6 0 1 0 2.8-1.55l-9.22-16.46a1.6 1.6 0 0 0-2.17-.61ZM56.07 130.66l-9.2 16.46a1.6 1.6 0 1 0 2.78 1.55l9.2-16.45a1.6 1.6 0 1 0-2.78-1.56Z"/><path fill="#E6E6E6" d="M115.08 152.89a4.93 4.93 0 1 0 0-9.87 4.93 4.93 0 0 0 0 9.87ZM118.56 26.7a4.93 4.93 0 1 0 0-9.86 4.93 4.93 0 0 0 0 9.86ZM81.14 15.1a4.93 4.93 0 1 0 0-9.87 4.93 4.93 0 0 0 0 9.87ZM45.46 26.12a4.93 4.93 0 1 0 0-9.86 4.93 4.93 0 0 0 0 9.86ZM48.65 152.89a4.93 4.93 0 1 0 0-9.87 4.93 4.93 0 0 0 0 9.87Z"/><path fill="#2F2E41" d="m133.56 172.46.21.54h-.2v-.54Z"/><path fill="#FF9500" d="M184.29 99.12a6.7 6.7 0 1 0 0-13.4 6.7 6.7 0 0 0 0 13.4ZM184.26 9.62c-.62 4.1.49 4.95.5 22.59 0 17.63 3.66 41.28-.48 41.28-4.14 0-5.65-48.8-20.02-53.12-16.89-5.08 22-24 20-10.75Z"/><g clip-path="url(#b)"><path fill="#36353A" d="M164.18 128.23c.6.18 1.31.14 1.95-.03a4.43 4.43 0 0 0 2.8-2.8c.2-.64.2-1.35.03-2.02l.07.14a5 5 0 0 1-.5-.81c-.14-.25-.31-.5-.46-.68a1.3 1.3 0 0 0-.5-.35.88.88 0 0 0-.56.1l.1-.06a2.47 2.47 0 0 0-.67 2.55c.18.42.47.74.9.95.1.04.2.07.31.14l.39.1a6.5 6.5 0 0 0 6.48-1.66l.7.68a6.97 6.97 0 0 1-3 1.91 7.52 7.52 0 0 1-4.43.03l-.42-.14c-.15-.07-.29-.1-.46-.17-.6-.29-1.1-.85-1.35-1.5a3.35 3.35 0 0 1 .92-3.57l.04-.03.07-.04c.32-.18.74-.28 1.2-.18.46.11.75.4.96.68.21.28.39.53.53.81.14.25.28.53.46.75l.03.07.04.07c.18.81.18 1.66-.03 2.44a5.22 5.22 0 0 1-1.2 2.16 7.94 7.94 0 0 1-4.4 2.3v-1.84Z"/><path fill="#DCDEE5" d="M168.78 140.1c-.53 2.86-1.34 5.24-3.25 7.47a16.94 16.94 0 0 1-7.9 5.03c-1.91.6-3.97.88-6.02.85-.5 0-.96-.04-1.45-.07-1.6 0-3.2 0-4.86-.07-1.63-.08-3.29-.15-4.95-.25-1.6-.18-3.2-.4-4.82-.71-7.44-.92-17.32-3.79-18.45-12.15-.25-1.66-.28-3.3-.1-4.88.2-5.07 2.5-9.74 6.26-12.65a14.94 14.94 0 0 1 4.18-2.27c5.8-2.12 11.8-2.37 17.74-1.59 1.99.25 3.97.64 5.88 1.13 8.11 2.17 17.07 6.38 17.64 15.7.35 1.48.35 2.97.1 4.46Z"/><path fill="#36353A" d="M158.23 147.6a33.2 33.2 0 0 1-.57 5c-1.9.6-3.96.88-6.02.85.04-.32.11-.64.22-1.03 4.07-13.39-7.69-23.06-14.17-32.55 3.01 2.13 6.27 4.54 9.31 7.26a49.77 49.77 0 0 1 4.32 4.32c3.69 4.6 7.2 10 6.91 16.15ZM130.86 133.19c.39-4.1.92-8.71-1.56-12.78 5.2.99 7.01 6.72 9.06 11.08.92 2.7-1.06 5.56-3.64 6.23-2.27.43-4.6-1.38-3.86-4.53ZM153.88 120.8a13.13 13.13 0 0 0-4-.47c1.98 2.9 4.42 5.17 5.62 8.3 1.38-1.57-.1-3.27-.28-4.75-.35-1.1-.78-2.23-1.34-3.08ZM168.78 135.67c-2.47 4.39-4.7 8.64-7.61 12.43 4.04-.32 7.26-4.04 7.61-8 .25-1.5.25-2.98 0-4.43Z"/><path fill="#CED2DB" d="M139.07 114.14s11.23-7.33 13.35-3.4c1.45 2.69.96 7.61-1.8 8.04-2.77.39-3.97 5.84-3.97 5.84l-7.58-10.48ZM111.24 116.61s-13.21-5.98-14.17-1.84c-.96 4.15 9.2 18.8 14.03 14.84 4.81-3.9.14-13 .14-13Z"/><path fill="#4F5156" d="M142.37 118.95s4.03-4.42 6.33-3.3c2.3 1.14-3 5.14-3.4 6.95-.42 1.8-4.03-2.44-2.94-3.65ZM111.45 125.19a4.85 4.85 0 0 0-2.83-2.84c-2.38-.88-6.45-2.2-6.41-.81.03 1.95 5.56 9.17 8.39 7.3 1.42-.93 1.31-2.42.85-3.65Z"/><path fill="#CED2DB" d="m148.14 138.71-.21.78a26.46 26.46 0 0 1-1.35 3.65 23.64 23.64 0 0 1-6.38 8.43 59.2 59.2 0 0 1-4.92 1.24c-1.38-.14-2.76-.5-4.14-1.06-1.06-.22-2.2-.32-3.33-.4-3.4.43-7.58 1.1-11.08.15a.5.5 0 0 1-.22-.07c-.03-.04-.1-.07-.14-.1a25.73 25.73 0 0 1-7.75-9.93c-.43-.95-.82-1.94-1.14-2.97-.03-.07-.03-.14-.07-.21a29.43 29.43 0 0 1-1.3-11.65 24.7 24.7 0 0 1 5.55-13.42c9.92-11.66 28.55-5.46 34.42 7.25a24.28 24.28 0 0 1 2.3 6.17 26.1 26.1 0 0 1-.24 12.14Z"/><path fill="#4F5156" d="M143.36 149.76c-1.92 1.63-6.84 3.26-7.26 3.37-7.26 1.6-17.28.46-22.84-3.86-6.8-5.28-6.17-15.73 1.02-20.47 9.6-6.34 25.93-4.29 31.63 5.17a12.5 12.5 0 0 1-2.55 15.8ZM138.26 109.04c2.51 2.65-18.84 13.17-18.91 7.36.88-.21.7-1.48-.22-1.41-8.18 1.41-17.07 3.86-4.6-7.02-8 3.2 1.88-8.92 23.73 1.07ZM116.26 123.04l-4.01 1.4.47 1.33 4-1.4-.46-1.33ZM139.05 124.03l-4.05-1.3-.43 1.35 4.05 1.3.43-1.35Z"/><path fill="#CED2DB" d="M138.5 143c2.34-.6 6.13-3.08 6.91-1.1.78 1.98.07 4.57.57 6.8.07.32.17.64.2 1 .12.98-.13 1.98-1.3 2.93-3.44 2.34-6.1 1.1-5.99-1.98l-.31-.78-.32-.85-1.35-3.37c-.18-.46-.1-1.02.18-1.48.28-.5.78-.92 1.41-1.17ZM115.73 142.25c2.06 1.25 6.48 2.2 5.63 4.15-.84 1.95-3.22 3.26-4.46 5.17-.17.28-.35.57-.56.81-.64.78-1.53 1.28-3.01 1.14-.5-.1-.96-.22-1.39-.4-.42-.13-.77-.35-1.1-.52-4.14-3.05-.24-9.42 3.94-10.63.32.04.64.14.95.28Z"/><path fill="#DCDEE5" d="M173.1 146.19c-.07.32-.1.7-.14 1.1-.18 1.94-.07 4.5-.99 5.34-.21.22-.5.32-.88.29-3.83-.36-8.33 1.45-11.34-1.95-.32-.28-.5-.64-.53-1.03a5.44 5.44 0 0 1 1.56-3.9c.32-.31.67-.53 1.06-.74 3.37-1.1 7.37-2.58 10.88-.92.24.5.42 1.13.38 1.8Z"/><path fill="#36353A" d="M177 123.56c0 .17-.1.32-.25.39l-1.17.6a.5.5 0 0 1-.2.07.86.86 0 0 1-.68.07 1.05 1.05 0 0 1-.6-.42 1.05 1.05 0 0 1-.15-.75c.71-.67.71-2.09 2.13-1.73.7.35-1.06 1.41.46 1.27.28.04.5.25.46.5Z"/></g></g><defs><clipPath id="a"><path fill="#fff" d="M.5.34h196v183.32H.5z"/></clipPath><clipPath id="b"><path fill="#fff" d="M97 105h80v48.84H97z"/></clipPath></defs></svg>